<mxfile host="app.diagrams.net" modified="2023-11-06T01:00:09.467Z" agent="Mozilla/5.0 (Macintosh; Intel Mac OS X 10_15_7) AppleWebKit/605.1.15 (KHTML, like Gecko) Version/17.0 Safari/605.1.15" etag="g6NiGFjlACvi2WFb7mXv" version="22.0.8" type="github">
  <diagram name="Page-1" id="qDj9nxEIbMRGYJExP9Cm">
    <mxGraphModel dx="1190" dy="755" grid="1" gridSize="10" guides="1" tooltips="1" connect="1" arrows="1" fold="1" page="1" pageScale="1" pageWidth="850" pageHeight="1100" math="0" shadow="0">
      <root>
        <mxCell id="0" />
        <mxCell id="1" parent="0" />
        <mxCell id="ik8qDe7FWxppDtMZJVn0-23" style="rounded=0;orthogonalLoop=1;jettySize=auto;html=1;endArrow=none;endFill=0;entryX=0;entryY=0.5;entryDx=0;entryDy=0;" edge="1" parent="1" target="ik8qDe7FWxppDtMZJVn0-25">
          <mxGeometry relative="1" as="geometry">
            <mxPoint x="250" y="225" as="sourcePoint" />
            <mxPoint x="360" y="105" as="targetPoint" />
          </mxGeometry>
        </mxCell>
        <mxCell id="ik8qDe7FWxppDtMZJVn0-24" value="Actor" style="shape=umlActor;verticalLabelPosition=bottom;verticalAlign=top;html=1;outlineConnect=0;" vertex="1" parent="1">
          <mxGeometry x="195" y="230" width="30" height="60" as="geometry" />
        </mxCell>
        <mxCell id="ik8qDe7FWxppDtMZJVn0-40" style="edgeStyle=orthogonalEdgeStyle;rounded=0;orthogonalLoop=1;jettySize=auto;html=1;dashed=1;dashPattern=8 8;" edge="1" parent="1" source="ik8qDe7FWxppDtMZJVn0-25" target="ik8qDe7FWxppDtMZJVn0-32">
          <mxGeometry relative="1" as="geometry" />
        </mxCell>
        <mxCell id="ik8qDe7FWxppDtMZJVn0-25" value="CU001&lt;br&gt;Registrar nuevo proveedor" style="ellipse;whiteSpace=wrap;html=1;verticalAlign=top;" vertex="1" parent="1">
          <mxGeometry x="480" y="40" width="100" height="70" as="geometry" />
        </mxCell>
        <mxCell id="ik8qDe7FWxppDtMZJVn0-26" value="Encargado&lt;br&gt;Administrativo" style="text;html=1;strokeColor=none;fillColor=none;align=center;verticalAlign=middle;whiteSpace=wrap;rounded=0;" vertex="1" parent="1">
          <mxGeometry x="180" y="311.5" width="60" height="30" as="geometry" />
        </mxCell>
        <mxCell id="ik8qDe7FWxppDtMZJVn0-42" style="rounded=0;orthogonalLoop=1;jettySize=auto;html=1;entryX=0;entryY=1;entryDx=0;entryDy=0;dashed=1;dashPattern=8 8;" edge="1" parent="1" source="ik8qDe7FWxppDtMZJVn0-28" target="ik8qDe7FWxppDtMZJVn0-32">
          <mxGeometry relative="1" as="geometry" />
        </mxCell>
        <mxCell id="ik8qDe7FWxppDtMZJVn0-28" value="CU003&lt;br&gt;Editar datos de proveedor existente" style="ellipse;whiteSpace=wrap;html=1;verticalAlign=top;" vertex="1" parent="1">
          <mxGeometry x="370" y="360" width="100" height="70" as="geometry" />
        </mxCell>
        <mxCell id="ik8qDe7FWxppDtMZJVn0-30" value="CU004&lt;br&gt;Consultar lista de proveedores" style="ellipse;whiteSpace=wrap;html=1;verticalAlign=top;" vertex="1" parent="1">
          <mxGeometry x="340" y="40" width="100" height="70" as="geometry" />
        </mxCell>
        <mxCell id="ik8qDe7FWxppDtMZJVn0-32" value="CU002&lt;br&gt;Validar datos únicos de proveedor" style="ellipse;whiteSpace=wrap;html=1;verticalAlign=top;" vertex="1" parent="1">
          <mxGeometry x="480" y="271.5" width="100" height="70" as="geometry" />
        </mxCell>
        <mxCell id="ik8qDe7FWxppDtMZJVn0-34" value="CU005&lt;br&gt;Asignar ID de proveedor" style="ellipse;whiteSpace=wrap;html=1;verticalAlign=top;" vertex="1" parent="1">
          <mxGeometry x="370" y="180" width="100" height="70" as="geometry" />
        </mxCell>
        <mxCell id="ik8qDe7FWxppDtMZJVn0-35" style="rounded=0;orthogonalLoop=1;jettySize=auto;html=1;endArrow=none;endFill=0;entryX=0;entryY=0.5;entryDx=0;entryDy=0;" edge="1" parent="1" target="ik8qDe7FWxppDtMZJVn0-28">
          <mxGeometry relative="1" as="geometry">
            <mxPoint x="250" y="270" as="sourcePoint" />
            <mxPoint x="360" y="185" as="targetPoint" />
          </mxGeometry>
        </mxCell>
        <mxCell id="ik8qDe7FWxppDtMZJVn0-36" style="rounded=0;orthogonalLoop=1;jettySize=auto;html=1;endArrow=none;endFill=0;entryX=0;entryY=0.5;entryDx=0;entryDy=0;" edge="1" parent="1" target="ik8qDe7FWxppDtMZJVn0-30">
          <mxGeometry relative="1" as="geometry">
            <mxPoint x="240" y="200" as="sourcePoint" />
            <mxPoint x="360" y="265" as="targetPoint" />
          </mxGeometry>
        </mxCell>
        <mxCell id="ik8qDe7FWxppDtMZJVn0-37" style="rounded=0;orthogonalLoop=1;jettySize=auto;html=1;endArrow=none;endFill=0;entryX=0;entryY=0.5;entryDx=0;entryDy=0;" edge="1" parent="1" target="ik8qDe7FWxppDtMZJVn0-32">
          <mxGeometry relative="1" as="geometry">
            <mxPoint x="250" y="250" as="sourcePoint" />
            <mxPoint x="350" y="345" as="targetPoint" />
          </mxGeometry>
        </mxCell>
        <mxCell id="ik8qDe7FWxppDtMZJVn0-38" style="rounded=0;orthogonalLoop=1;jettySize=auto;html=1;endArrow=none;endFill=0;entryX=0;entryY=0.5;entryDx=0;entryDy=0;" edge="1" parent="1" target="ik8qDe7FWxppDtMZJVn0-34">
          <mxGeometry relative="1" as="geometry">
            <mxPoint x="250" y="240" as="sourcePoint" />
            <mxPoint x="360" y="425" as="targetPoint" />
          </mxGeometry>
        </mxCell>
        <mxCell id="ik8qDe7FWxppDtMZJVn0-41" value="&amp;lt;&amp;lt;include&amp;gt;&amp;gt;" style="text;html=1;strokeColor=none;fillColor=none;align=center;verticalAlign=middle;whiteSpace=wrap;rounded=0;" vertex="1" parent="1">
          <mxGeometry x="540" y="160" width="60" height="30" as="geometry" />
        </mxCell>
        <mxCell id="ik8qDe7FWxppDtMZJVn0-43" value="&amp;lt;&amp;lt;include&amp;gt;&amp;gt;" style="text;html=1;strokeColor=none;fillColor=none;align=center;verticalAlign=middle;whiteSpace=wrap;rounded=0;" vertex="1" parent="1">
          <mxGeometry x="470" y="350" width="60" height="30" as="geometry" />
        </mxCell>
        <mxCell id="ik8qDe7FWxppDtMZJVn0-46" value="uc: REQ_ Módulo Proveedores" style="shape=umlFrame;whiteSpace=wrap;html=1;pointerEvents=0;fontSize=8;" vertex="1" parent="1">
          <mxGeometry x="110" y="20" width="600" height="420" as="geometry" />
        </mxCell>
        <mxCell id="ik8qDe7FWxppDtMZJVn0-47" style="rounded=0;orthogonalLoop=1;jettySize=auto;html=1;exitX=0;exitY=1;exitDx=0;exitDy=0;entryX=0.78;entryY=0.071;entryDx=0;entryDy=0;entryPerimeter=0;dashed=1;dashPattern=8 8;" edge="1" parent="1" source="ik8qDe7FWxppDtMZJVn0-25" target="ik8qDe7FWxppDtMZJVn0-34">
          <mxGeometry relative="1" as="geometry" />
        </mxCell>
        <mxCell id="ik8qDe7FWxppDtMZJVn0-48" value="&amp;lt;&amp;lt;include&amp;gt;&amp;gt;" style="text;html=1;strokeColor=none;fillColor=none;align=center;verticalAlign=middle;whiteSpace=wrap;rounded=0;" vertex="1" parent="1">
          <mxGeometry x="460" y="140" width="60" height="30" as="geometry" />
        </mxCell>
        <mxCell id="ik8qDe7FWxppDtMZJVn0-49" value="" style="shape=image;verticalLabelPosition=bottom;labelBackgroundColor=default;verticalAlign=top;aspect=fixed;imageAspect=0;image=data:image/png,iVBORw0KGgoAAAANSUhEUgAAAlgAAAGkCAYAAADt3lsjAAAAAXNSR0IArs4c6QAAAIRlWElmTU0AKgAAAAgABQESAAMAAAABAAEAAAEaAAUAAAABAAAASgEbAAUAAAABAAAAUgEoAAMAAAABAAIAAIdpAAQAAAABAAAAWgAAAAAAAACQAAAAAQAAAJAAAAABAAOgAQADAAAAAQABAACgAgAEAAAAAQAAAligAwAEAAAAAQAAAaQAAAAAtvSs/wAAAAlwSFlzAAAWJQAAFiUBSVIk8AAAQABJREFUeAHs3QeYZEW5PvCDCS/KVUCCiLhkBUFyBhcFhSW6hCWD5CBBBTELgghXgiKShSUuQXIUEFYkKCAgCEqSYABFvV69xr86//6Vt9azzcxsd093T5/ur57nTE/3OafCW9Vd73m/r76arSiKodoRKRAIBAKBQCAQCAQCgUCgTQi8Sj5DQ4PBsV544YVi5ZVXLn7+85+3Cb7IJhAIBAKBQCAQCAQCgZkRmG222YpEsGb+uDPv/vnPf87IWMEOqfy59694xSu8JNKXiV/5+nQy/gQCgUAgEAgEAoFAINDDCHSFYP35z38uJk6cWHhFlhZddNHi+OOPT++nTJkyg1S97nWvK66++upEuvbZZ5/ikUceKeaZZ57i05/+dLHZZpv1MIxRtUAgEAgEAoFAIBAIBP6NwL/kon+/b+i/rDpRmPLhM0dWnfI1MvTZH/7wh+Kee+4pbrvttmKRRRYpTjrppOL//b//VyyxxBLFLbfckg7kao455ig++9nPFiuuuGLx+OOPp+s+/OEPFy+99FJDdYuLAoFAIBAIBAKBQCAQGG8EmiZYf//735OahEBNnz69OPHEE4uHHnqomDRpUrHpppsWF198cfHEE08U++2330xto1z9x3/8R/H617++eMc73lH84x//SOezqdDrq171qkTS7rrrruKAAw5I75dbbrliww03TGXNlGG8CQQCgUAgEAgEAoFAoEcRaMlE+Ktf/So1h8nvt7/9bXH66acXRx99dLH00ksnE9+SSy5ZnHLKKTM1+Te/+U2x/fbbJ7Pg/fffX5x77rmJTDEDHnHEEclM+Ja3vKXYaaedite+9rXFG9/4xnQ/n6xll122ePrpp2fKL94EAoFAIBAIBAKBQCDQqwi0RLCoV5Ssn/70p6ldyBNlymcIUTYblhv9pje9Kalbrpk2bVpx/fXXF7vsskux0korJTNgvvYvf/lLscACCyRVbLHFFitOPfXU4rvf/W5xyCGH5EviNRAIBAKBQCAQCAQCgZ5GoGmCxZS31lprFVtssUUh7IFX5sCDDz44mQC32WabZCI85phjinPOOSc1Ppv/vPH/hAkTiksuuWSGOXCTTTZJ1zEhnnDCCck8uNVWWyX/rCeffLKYc845i/nnnz9dny78vz/yckQKBAKBQCAQCAQCgUCglxDATmqCU/NxsP74xz8WVv3lRJlyMO+1I8nrF7/4RfGGN7whmSGfe+655CSf85599tmLyZMnJ7KWP5vVa8TBmhVCcT4QCAQCgUAgEAgExopAEoBqmbREsMZa+HjcHwRrPFCPMgOBQCAQCAQCgcFCAMFqehXhcBBl9Sqf46MlBENO/h9OJXPfcGmkz4e7Nj4LBAKBQCAQCAQCgUCg1xAYM8FChj7+8Y/PcEIXfoET+wYbbJDa+te//rXYcccdi0cffXSmtluBuOeee870mTd/+tOfUl6/+93vXnYuPggEAoFAIBAIBAKBQKAKCIyZYFGmnn/++bRC8H//93+TH9aFF15YPPXUU0m1QpS22267YqmllkrvqVt/+9vf0mFPQPdnxQo5c/zsZz9Ln/k8XzucAtYswLmcZu+L6wOBQCAQCAQCgUAgEGgGgTETLIUJzbDmmmsWN954Y/Hf//3fBVL15je/uaBefeELXyimTp2aQjL8+te/Lq666qoUD2v33XdPJEpQ0o997GOJSJ122mnF7bffnurv3q985SuFVYk77LDDyxSwZhrpWpHkrVCMFAgEAoFAIBAIBAKBQKcRaBvB2nLLLYtvfOMbxQ033FB84AMfSErUAw88ULzyla9Mn7/3ve9NpkOR3wUZ/dznPpdCLPDPEkeLQvX73/++EAfL///zP/9T3HHHHcXll19efPSjHy3OPPPMMWHB9ChshGjxkQKBQCAQCAQCgUAgEOgkAm0hWLzlbX/D5HfZZZcVyJZEyRLKgRrFPEfpylvk+F/y6hyfrBy41OcI0Wte85oZ946VGKnju9/97kTs5B8pEAgEAoFAIBAIBAKBTiEwZjkHcRH76tWvfnVSruxPaMsbkd0nTpyY1Kq999471f+4445LitaUKVOSkvSf//mfxVvf+tZEpjjCv/jii8X666+fApYyMU6oBSRlSpQ++clPptdW/jAPMj/afme33XZrJYu4JxAIBAKBQCAQCAQCgYYRaDnQaKMlZHNf3lswmwLnmGOORMrk4zOmQZHcyylfK9hoq4kJEunbdddd0+sSSyzRalZxXyAQCAQCgUAgEAgEArNEgPjUcYI1y1p08AIE7aWXXkrhIGzp88EPfrCDpUXWgUD/I+A7ZSVw+dX/5QMK3peTHxsp/ej44Skd3AS8z6/l++L/aiOQx8lwY0bL8ripb+WsxkseK/m6+vvjfSAw3ggYm6OaCH0pKEtSurjmIM4U2KmkPD5a7SpD2AimwbnmmivIVac6LfLtWwTy5Og7mb+bVgkLwfLMM88kn0m7I/zyl79MC1WcY47nT8nvMvtbWuhiaysKNdcBarbN3+ebb7602njhhRcuJkyYUNjc3ecmT/fk15hEqzHEjJE8TvL/tjt7+umni2effTaF3zFefvWrX6XxYiGT32jjRTge90h+//nfsnJwI/H7nccL9xPjZZFFFikWX3zxNJ6MkzxWvMZ4qcZ4GYRajqpg+SG1ItAPo8Hu/wMPPLAjA9iP8Q9/+MPi5ptvLg499NAxY59Ng1QroR/CNDhmSCODPkcgEyqLTnwfqb8PPfRQ8eCDDxaPPPJICpXigWvRRRdNZMhEZ8JbYIEFinnnnbeYe+6504To9wKhygtT5GcCtXAFAfvtb39bCNnC59LCGPuM/uQnP0mHe5Zeeuli2WWXLVZYYYVi+eWXT/kjXM7FBNo7g9B4MU7yeNGPebz4LX/ssceSfy7ibMwYLwsuuGAx//zzJ8KEOM0555xpfkGo9LHktxtBN16QMOPFWETOxEhUDtKG5Bt3xstyyy1XrLjiiukVKTNW5Jfz7B3UoiaDggCiPyLB8uXxBRGj6tJLL00/hO95z3uKxx9/fAbB8iPqh9O1fvg8efhycHr3eX6S8AX0dOJz1/nyeO+8z/IXSlgHYR6OPvrodI2O8EVxeMpxvR/vfL+81MF7dcj5+d8Xco899kikMEyDgzKko53NIuC7kidJChQi9e1vf7u46667kjLlwWSVVVZJRAfpWWihhdL3sdlyGrne74RJVB1M1Pfff3/6vTERr7XWWsW6666b6oHI+a0xeebfmEbyj2vGjoDxop8clMv77rsvhdMxXnxmjKy00kqpn975znfOUCTHXvLLczBvIOYPP/xweghQF+QLoVt77bXTqnGr261kN16CnL8cw/ikcwj4bWqIYAm9gMRsuOGGKQzDzjvvnJ48kK+zzjorxa/yJLvtttumWFdf/vKXi1NPPTU9XZCAKUhk4aOOOirJup/5zGcK0jHZV/DPr3/968V3v/vd9LTiCyrMgzx8gdZbb73i/e9/f7FrzUndk/LXvva14ogjjkhPv56EBDL99Kc/nZ52vFcGcidfTzhTa0FOIwUCgcDMCHjA8f0Sg87EJEiwV0//YtZNrK0Apgp4P57J7wc1ZHptocq3vvWtpHyZwP0Wrb766uk3JJOt8axnv5eNhBsvfrfFJzRebH+GgHvwNl7874F5PBO1CzE359x6662JhCNbkyZNmjGejZcg5uPZS4NRdkMEC7nxBfJ0stFGG6Vtb5ZZZpnie9/7XnHRRRelpwOR1j/84Q8ngnXIIYekwKLCLpx//vnphxAJErH9Bz/4Qdqj0ODfbLPNUuBP1yFplKtLLrkk5evLvP/++ydJefvtt0+xq+R70003JQL3ne98J9VF+e4X8R3p49Phy/T9738/+VyFaXAwBnK0sjEEslrlAeTHP/5xCuLrO+IJf/PNN0/fVX4tvZz48nzzm98srr766mQ6omp5IKOWULND1Wpf72W1ysP1Pffck8aL333bnvn9FlLHb24vJ3OOucV4Yf1AzLfaaqtkqiybJXu5DVG3aiKAYI3q5K5Z7NrnnXfejBYiWvPMM09SsDxdkuv/+Mc/JhOdAWvwitLOf8J7P3oSdUmgT3Z1P+jkWmRIXhxf5ZGfKvzvvGslJkLxsiSmQvf7jNngbW97W9ocmj/HSSedlOr11a9+NSlZ4XeVIIs/A45AnigF/qUU2yvU/qGUKotAKFVVSRNqzvDi6jl+9KMfpYc5D198cTzo+U3xm+T3If+eVKVtvVJP44VaxerAJ9Z4QVw33njjgvWBtaIq6V3velfh+MQnPlHceeedyd3FHLXqqqum8WLsm3+Ml0iBQLsRGNFEqCBPuZ///OeTUpULRrB80ahJniYpV1YFMSVQkjitrrbaaumLueSSSxb/9V//lfwo2OsPO+yw4u1vf3tylOfciKCdccYZycwnirutcsj/5OaTTz65EP9q5ZVXTmqVIKXMjq6zdQ6S5cnq+OOPT2qXwKQcIOXP/8q2OJECgUFHwPeVGZBZhyned4xvIpMJk3s/JN93RIASjlQJTkx1R7pi4myuh6mb/OCuvfbaNF6s1oPnOuusM+7m4uZaMvLV/LRswWb7NeTL98G8Yw4Lp/iRcYszzSHgt2hUgtVodlZ6jBQM1NOQ8+zeSJHkM09H5GWV8J6DLWfW/NRpYvBlt3qxPvEfsQrJD6jrmRQRryeffDJMg/VgxfuBRMB3ghLMtONhxXfwgAMOSP6MzfhV+a5J6cei9l3r5eSB7bbbbkvtVc8PfehDSTWnUMTEOXrP+b1FvpnSTjnllOQru99++6UFDo36Vfkdd0hVGC/8teyfy/LBUmOFPKd4pkQWlEiBwFgQSN+BWga178TMQQHHkmm371V3S8cRtH322aeYPHlycojvdj2ivECgFxDwffBgwjH89NNPT6usdtppp+RjlXdTmFU95cFEhLBQnpnlmfiZ85n8kS7fOaSlPPkq131cAzxQ5Yck+XmfnYtz/q71I+T6eqXJNRRqSZmuazQhCpywp9YWuHgI23fffdMEqpxm8mm0vCpfpy/hPL22iMACIg+0e+21V7HmmmsO+3A7XFtzX8GdBUNfUkeNN/8bB8aLsWIM5GRcuVf/IjTGg0PKY0J/qaOxJR9jzrl6wix/eeQxlsto5JUCesEFFxQXX3xxUj4pWkJKqHuMl0YQjGuGQ8DYSQoWE0JVEz8tpknqFQUsTINV7cmo91gRoFox71AhOIIze+yyyy7FhAkTmsraRMmEQvnKG7BTqBE1vk9IF9O82Eb8LXM699xzi+uuuy7tnMA/klnyqquuSrGvmP033XTTNPGahDkeO5/j61ktXCZrzP0IonIRpKx+57IaeVV3C2GEEOD/yfeG/1A9mWskr368BpkRT4qPLUJuoYPD6u5mEmsEv1eLlIwd+fKZtcp8k002SX5/Qu9wEbFQKqePfOQjSWXlZoKQXXHFFWmlKAIl5qIxw5WEqwqlSfgOYUKMaQutMnlDELmQCM/AfcU80Eri04dk8k/kz8dHkT9fqFmtoBn3IFjJs4+vVNWTL5Wn1kiBwCAiYFITO8rDBvM5p16kotmEpCFo/FOszqNmmGAQFRMowmPiozw46lP+3BJ5oVYoAUKvmCARK2Y7q4sROCuUKQ8mZw9KypN8JjQM/0wTnTq1kkzyJnUr34455phkLj344IOTg7NJfJATjG+55ZZETKwKRFBamQeoSu61eEKIHASHNQEBR1b4xuYxUY93/tyrvtbnG2ywQVKNhOKhXK2xxhrF4YcfnsLyIF3K4ReM2HNQ57h+zTXXpLG55557zlDA6stq5D3zoIcKDwXKYF43Xvmh1StmjeQX1wQCiWD5QY4UCAQC1UPA5MTUwvcIcRGuwMISEbNbSVQfio9Jl6kkqxli3DERMsEw14yWTN6ivyNXQrSoi6e5e++9NzlPUyTkZ/Wf/10jtAq1gyoh3pXgke0KAWDRjdWS8OFvQ8lCBKhng2YCQlqYfqmNQnToY8pio+bj+n6nKiGwMKVOURodVCmKlP/zavD6e/P77DsnJI+g0FQrMbbuvvvutGCJhQXhQuwRKoucxDgUwV35fKnaqTLZt5bzO5KIyCHlyBxSPmjjJfdRvLaGQKxNbQ23uCsQGHcETJbCk/AdMRmJCWdyGEsyWdnOhrmlTHAQre222y5lLbbQaImCYVJk9kGuTH4UZmSQScpElQkgEwxVzD0c8T3sMW9SDZpxxh+tPs7xIUPo5M2NgEsBkyeTUzsn51nVYzzPUwLhT6WxAOKzn/1sirg+ljpRJZEO5mLEKCfkGjGRYD5aYtb2kCAPY0F++ktYEdu1UcHyWGDiRfKZJRF5Czck6lY7VSbjD07M1EiW7xYCiYgGyRqtN+NcGYFXlN/E/4FAIFANBEyWtgk58cQT01O9yWys5ErLmRrlbRJDiHLyv3OjqVf5egTNBI5IZfJi8qUYIV4m0xwfzwo/k6e8nWMmUn5Ws5BI73PeuT6tvjJLUkAoJDmEjPz7PTHlUQk/+clPJoLw8Y9/fMzkCmb6Uh87yn3kf75Ryh0puQZZQarzmMvkhVoqT/5+Pst+cz7nqydvY6PTic8hH0Ahgs4+++xUn3I7O11+5F9tBIJgVbv/ovYDiIDJyM4IfF8oEnxUBNhsR6IgIFccfTks52QiZbrjxG7CK+8Jmq9BktxLlXIN01AmZF6Zi6gRrmMWkvzvcA9ljLlJHggQ9UL7mBuRtnYleysKmEkx++IXv5gcvPuZZCE5/IlsKSZS/6GHHpq2tWkHnpQm/UzJoijlBFsBSm1bk02xxkCZnCBJCLYxB3/55H4w3iioCJWxkseRzxEr48gY7EZiQj322GNTkFKmZtsFdYPcdaNtUUZnEQiC1Vl8I/dAoK0I+GFHrpgvkA7O2+2MxG5CY4bhi2VlmQnP4X9O7kxrzGoIkYnGxKpOJkemHqqDHRScZ/azBN5EyqRDheDb5RqfI1ZMnNQu4RRMtNQJvlraZ3KmujAxtdtPlEMzvx5KGmd8hC5P7m3tsHHOLJMr4wQJp3Tqv3YlpkB9bYGFlZ/GgjJtGG5hA5LO9AdnZJnZzzU+dz3TM3M0EmYsGdPGkrFlTBhLyJpDvlRbyqhxioh3KwlbgVzxdRSw17gtk8Vu1SPKqRYCr6xVt/YAfHi1ah21DQQGEAE/6KJQCwTpBx5BQFjamahMJjL7fZrMKAXK4hSNJE2ZMiWtNnu2touD6OnqxL8KCeLUzDnYakDXckhGqpA15+yyYA+7xx57LBEa/iwcrZEbYRqck7/I4VYPmowRIb5CnYg6r94WBWgrIqd+PstmqnbiOh55ITKIj9V9dsQQJ7DdOOpDpl07exg3yJb+tTIUsbJjAELHR9DiiRwcmrnNikC+U4gf9fKBBx5I9bMCdXotLheTN7XR6nCkC/k2DiV7ClLPckL+jVXtNIY7keS//PLLp5W6yLhVl1md60R5kWe1EfD7LNV+IyMFAoFAryNQU32GakrEUG211VBt4uxYdWuK0lDNcX6otkR+qKYwpGPixIlDtdAKQzVTTSq35hszVIttNFRTH9L5WkiEoZrD8VDNrJfO19SsoRoxGqpNrkO1iWmotoR+qBZnKJ2rmauGaiRsqGYCGqopFEMnnHDCUM0MNFN7ahPq0JFHHpnyqKkaM51r95saIRiqraYbqpnQhtS7X1KNIA/tuuuuqV01k2/HmlVTKodqK0GHaqv6hmrK0lCNRA1tvfXWQzUFcqhGulK56lJbIZjGgzFVI19DNf/BIWNaqimjQzVyncaKMVMz3Q4ZY1LNL29o9dVXT/nW1NqhGuEaqqmi6Vz+I2/jKOeXP+/Ea42QD9W2YhqqBScd6vTY7ET9I8/uIIBbpUCjteIS04o/gUAg0JsIMKeJTyVAZ23SLNZdd92OV5S/CyWKSY9awDRTn5h0rDzkxE69KCcKSnZg5k9TXuXFbEj5YDpi7hnvxPfL6kIhHahnw7V1vOvYTPn8oTjxU3522223lmJcNVOea40FTulMvcZCub9zXvrcdcYD9aecqELMhMaSPIy7nJiR3cukWH9fvqabr2JvUdPEWRPQd7i2drM+UVbvIUAJD4LVe/0SNQoEZkLAxCPquRV2gocyo0VqPwI2OGbqYtay2jCvXGt/SZ3NERkXnZ15cOedd05mts6WOJi5C+or+ju/NubCMiEcTESi1WUEEKx/PyKUz8T/gUAg0DMI8IUy8fMBydHOe6ZyfVQRxMpEKcK5AKhVTRYJcDJff/31k7pS1Xb0er1thp2VZepapECgHoEgWPWIxPtAoIcQsDyd+coPuGjZnpI5EzO/RWovAsw8SBbFkOM7M2bVErMuUzKH/VVXXTVUlQ52oFWMYmRRl63sNW4iBQJlBCKSexmN+D8Q6CEE+EZaWSVcAZ8rflB+yJEtwTlFQ/fareXqJhAxiZC8vNqQDD6W8uWHMIppxG8IyREbabiEVFIMXNOq+U4bLPl3f44OXi5LWADKj9WNVr1Z3ViVVYXGi330EEMbFVM8Jf5LcC4TABjCXD/6v5UkDIe+5xM1nHlMfdQF1q32Vyv16uY9Vi3CWkgKeIsAX5Xx0k2cBrWsULAGteej3T2PgEnR8naEynJ4T8t8g+zZZi89y+6Zg8oTZycbxQH58FpIly996UspjhUSws9nLMkmvx/72MdSSAfhBCzfHylxoBbsVEyuVpM8RDO3mfVIKS8goEwgY1VJYosJaSCulPATOcFUKATx0jhkIwUTJ05M4S8Q9lYXOX3qU59KOCJawyVkmDO4/kKi+zX5PnoQsn9mFVXPfu2XXmhXKFi90AtRh0BgGATEhxJwccKECcVFF12UVILrr78+TaD33XdfijV01llnpadmq7IoFUxEnqCpClllogxRf3I07HzOZ1aZucck63qH602OWd1wjQkSkXOdV35h9kAUh8tkTslQvnuV714Kievln82aVueVFSrnHeIjmajUTb3kIz9lyUcMJGRg2rRpiSAolyqibq6loLjXtfVqirbIS/vF1vI+JxOicz7TBnUTC0ucJWTOxFlbkp8v7+lX8aOoKMgU/MtphRVWSA7vzIZw4NDPSVusqre97W1p1SRCD4+sIubtjPQfjPQrzLP6lTdmhlm+Rj+7z2cIn/EJS2XoF3nAWn8aC+5z5DGbx4zyJNdaVZjr4jOkN+dTLk/d9K9r5e+a8nvX5ja6loKpToKeGjvuc4/3uT7qZowZk86ri3vLSWwxYxchFydrQu37GikQgMDMIyUwCQQCgZ5AwMRihZIJgmlQlHT7x2VlwiTqB99Ts8nItdQgpMDkYnsPATvdV4tflVQwUdhdu8022yT1C3lD3Nxj0q3FLkpL+gUNle9BBx2Uorq7H9mbPHlywkboBY7gAo0ql2O4idqydVuyICoCSJp0TEy1eEEpP2RJvffff/+XYUwFYZJj9qTWXXnllWnVpEl6Yk1t0R5RtNX1mWeeSVu+IJVWy1HxtFn9tc3nOSnfeRO9uspfBPFazKbUZu2YOnVqypN5EGlgFkREnHvkkUeKddZZJ7Up59mLr0gmtZPvlXbUJ30CVyExEFqY8tUSMgGB0L9UPcRdKIRaXLC0uTECInyF/kAsavHOCtHbt91226ROIRPyRPytcs3Y2u/RtkrG0bO1oLRUtem14KFIjvf2mlxmmWWSSZNDvv6jzlr1iNScdNJJaey41hY/a6211owm2eYIAbKdkzG94oorFp/4xCdS231H9JegtcgQdRRBpvgKZmpPQYqacfChD30okaFavLU0bhBB9ajFd0ttkgfTH7MrYkb9s2G472A9yTI+fU+0H0atml1nNDL+6QsEXtEXrYhGBAJ9hoBtRUwuiIAJ0dN2eeI08YnZVAvgmc5RdjjDI0VMhyZb5MPTuP/ltdNOOxW1gI1pokOEkBXkg+lxu+22SxG45SGulckrK15MlMyDSJ9kola2Q9gIZERUbuY3cYFMTJzEHfKgPDEnuk/5wyXKiTJFjVdfasz73ve+NKEhiYhOLfBpUq/4vFBkKAYIApPfBhtskAiY+pcTMojgab/wFuIriYYvabttT0zEJmavzGlUK3GclCEOmMjkvZ7gj0Qtu+yyqR319UUQ7O0IR32fI/Mjx/qI2Vdb9Z/+/NrXvpYIL1JkBStCZgEAf0D9Iz+Y6hvkDBFBnkWvRuJdw9Rq70NkG5bGB9UzY4uUGVdIi/HHnIgEyVsfGDPGC/WrnIwThA+R2mWXXVJZiCGSqW9z7DX3qCPyjvh87nOfS9kcXjNzU0ARKd8PJNxYMs49dPjfQw0Cqhzj+fjjj09j8/TTT0/XlOvjf4RNXbVb+ZECAQiEghXjIBDoQQTyxIDAUHY8Edc/FSM8DiEFmOysMtx7773ThGLiotiY4DxRU2WQMaoMMmayk7IJBEFBXKgX8qpPSF5OTDsmIKYR+xZSMKgI1BPvqU4m7VwGtWHzzTcvKAWNBBV1PVWFKYiqQelAfkyUytQeZA3hQgbUxXY82lI/uVE4TNg77rhjUvRgmeuFLKgn5cLkCEtEARHxnrnHhI8g2gKoV5O+0RbK3YQRzFNIoslf37keCdLfSDuiiVwJsEopokYiYUg+AsVnCznnwO06n5cTkgtHBMW2OBQmRNahn4xB48pDAbKCzCo3m3YRrscffzzlYey41hiwKTXixXxXn/Snc8YDIq9PjZmRErKmnlQr7XEf5QxZs8+g74Wx4zuj3lQq2zshiQK1GtfKsIG1BxAqXn2CJxUQDsZkpEAgCFaMgUCgxxAwWTGDIQwmehO8icfEb5KTTJKUAwTAZMlk4Sla4n9jYkMY5JH9ipwzwboWWUO6kDMRv33OjMI0VE7Mesw6oyWToYnYZrjq6D1fmpyYMk04jZAr95jwtPn8888vLr300mSaocqVJ1plUCWY/mDlffl8Lts1Up7wTKzZhMj8inDZh1D7KRnllYVUDjgjFBQ27ejFpI+NBeQIERguUZCoPQip6xGFqTXTqPuMH8ohp3UkWJv1ub5nTkOes08XNQmBKCeEhUpFFWMms3/kRz7ykWE3IUe2jE1Yy8eYQYIRaGQnJ+Uh0sP1qWv47DHn6Xev8lPvcjL+8+eIIYJErc0kUxtdQ3mzl6GHGmZo7TVWEXxEKrcd8cu4lMvJ/1N0mTN9FyiD9WbEfF28Dg4CYSIcnL6OllYEAZMd0wXlxgSDHJg8rNjz1G/i8xTNxMJfyqTqqdskYsIwcSFkPke6TEKOcpIPkoW4mFRMPMia/FyrDNfIy8RUP3nlvHyOgDClmIyYHZndqD851ZedPx/pldJAubItUG1/uaRcccr2ufIcCBiFgQmVOsG3Bl719TQRU060AzawhY2EePLPYUpFJKbXzGEUCKqhxORGlUN4KWS9mqg/SAvyM9Kkri2c9+Ghn/irIeuwcG5CTfni9wQH5jZmVX5FSAXMqIdIpjFWrxQxqyF31D8kS38bD5ncIjk55bGAvBgn6sxXy/XGTLn/8rX53vLrSOf0NQKprxE26qUEH+1F2rWRKZlvmYcMhIqiZuwi3FnhgolxIw9tMM6pe2USXq4TomdzatcZq5ECgSBYMQYCgR5DwKRHVfBjLlEfKFkmIo7EiBZSgBh5aja5WT3GVHLnnXcmfygmQoRjpAnXBMTHhB+KSdMTN8XAxMVkY0I14fCFYi4qT2j+ly8Spq7ul0zeJiN1MImZiE3KzSaTHJ8gfkUmuawGmDwpCLlMBBEBMFlrO/NOfZlUKOoIrPKBkEjOyU/71Jf/Fd+jsokUAXANktGriYJn0of/SKncf65ByKmMiAAHdCQL3hQtY0zIDP8L7UDZQT75YhkT9WZY19U2Z05jBaGnUiGv8qQWIWDUwjJ5yuPCmIOvsYiQqQ9C22qSH4LooEr5HkjIm/FqnGR1lFqHhMEG0WYmNFbUn1rJx+vBBx9MPlnaaFwbM8jaSMl3DhnPxG6k6+LzwUAgTISD0c/RygohgNwgWPxZJCTD6jZEgn8LcoRYWDHHD8X/fEVMAK6jenEQ51dlgnE+mzlMHAgUU5nJE7mw2s8EbUJxnwnP0z6SQ+0wWbreE7p7vUfo1ItjsnMIoFWMVAyTjEmKQzVyxNwy0qSkXOfl7dXEz7fKxJadkuVnWxJ+MepDuUMmqAUUE+YubVFn9yFaWUEz4U+cODGFJOCDhkwgTcr1OfJAyaCmUAr56DCj5aRt8KgnFfl8L7zqY/1LoRouIQ3GQNnE6XrYIKv60uq9k08+OSlJsOF3hLxTd7QfzpQhhCkrZfLUX0xscD/mmGNS8cat1XvICCz1Tya6rkeM9R+FDPZUJaoR0yJCbxzk8TZce5h41RHhluRlfHnP1+/YY49N48UY0Ebn5K9NlE5t8dkBBxyQykSwqJbGrvpmEzLfPN8p45CCpQ2C0PoOjJSML98pWEUKBGarQVB7sJjZdh2wBAKBwPghwFxCKeAMnEmW2ngCZ7JAvkxuJs5yot6YME2CJgkT2aySJ233IGXuyUoHEic/KsRIfjCuoTZkpQIxNBmbIJ1zmNSdbza5N6tGCEBW4nKZ2ihfplK/X8iFuigfWcvX53LVTXtMrJlsOudeeVBY1Nv5cuJP8+UvfzmZIvkw9WL67Gc/m0gGx++RSFYj9WaWNhaQIPkYP/zTYIdMw0bsLNjCwmc5lfsL4dEHORmvub/yZ/kV9pKxbOzpI8paK2Mm54ncMG9nFS1/7lU/a2Mmh5mkla8p/+87h8CqGwKuHaMlPoic8z//+c+nFZ2jXRvn+hsBYyYUrP7u42hdBRHIPiT1k70JLz9dD9csRIi60EwyCTnqkwnORDtack15IixP7ohVWTEZLZ/hzsmXuac+1ZdZVhPKk3r9fepWrl8+70cQsXIMlygl1AskoVcT0sDfrrywoJW6aqujnOTNLw3OiKnwCeKr1Y/DkfpLXmVCW87b/+X+876+fJ81m+AwEha+U/Xfq9Hy952jmjaaEDdEdSxmzkbLiut6H4EgWL3fR1HDAULAE7OneErMSJPEAMEx7k1F2qhcvTphIuMmdKrSrNSVVsBkOqMuMZVRqQ4//PBkNhxJ1WyljH66x8MK/zLf40iBQBCsGAOBQI8gYCLn6Mt3SZqV+aJHqt3X1chm1vJKuF5oMAKOWPFZMl744HVivCBu/JLKfmm90P5erYPxglz5LkcKBIJgxRgIBHoEASuobD9jtSAHbJNo2QTXI9VsWzWYnzztM911Qn1pR0X1gZSJVjvyHGseFE6r2sQIs0KPvxECaGLvpXqOtZ2N3o9oUvKY/sZilm60vNGuo/IhpZ0gu6OVG+d6E4F/LcPozbpFrQKBgUEA0ZheWwovIrdVWYhVL/v9tKNj7INoaxUr+Xo1ITMmy/GeuOFj8raa0SIIju1UEviJGYYI5tAHvYplp+oluKmVfgKWjndC9pj2B5Hojjf2vVh+KFi92CtRp4FCwMRpabcgn2JaeRJn+rF6qxmH3DJoVgdmgkbhQBDkhbg5ZzI2QVOO+I0IAeFzZIKjMR8b97vGfT73nlKQneLdI295cIh3j+tdR52iqnBwlp9yvafSmYRyfrnOfJzk517n5Mf3Rz2VmZUkZXNMd61z2uVak5o85C8P1/jc9fJrNWmH++tXbLaaX6v3aZP4Z2I7qZNwEhNrKid8KYCwcE27faNyXCpjVBn6kWM63I1P/Q13+Ctb3xpH8NfvcPOZ5D11B2lVV+dgqz362Dl583tzv3yHOycveTpcp7zs82ScqFd5DCjHeWPG9dphUcNoiyKU0UoSE873pVcV2VbaFPe0jkAQrNaxizsDgTEj4IdfkEtRycX+EWFblGk//sIUiO3UbJKn+FQmY5OvuFDCPYgDZU89G+4KKmlCEytIkEVbznBkNlHa1NeecQJzUkw+/OEPpzAAAk26Zsstt0yT5NTaViuiVstbPC5b7ZjYKArKNmmKpSR8gGCpzFliHoljhfyYaMXLUl+r06xW03akSDwj9wn6yWQKC3WzJYvrBVq1sa9Vk64T88t+e/ZZRFZN/OqU44Q1i2G+3pJ+akSrRDfn0+prJp6i2gsAqr/0R3lcWNEn3AHCIURCO5O+tFeh8CDP1pRG4+nggw9O5E6UfeNDKIuNNtoohSWAv2CeiJM4UmJP+cxYsA2TOFEeHrRHzDbtM/aYPK3As0KRIoc4GqPO6Vftcr84bfpfQFjjEdHTP3k1oq2fhJJwLzIo1pY6IGHCbbhWO77whS+kLZjaiZW8BC7Vjk6Qt3bXNfLrPAJBsDqPcZQQCAyLABLAqT2rEoccckgiESYLE4yI0IJuNpsoRYiBSQbBOOyww1IQRSTOcn6kBVFCogQCNQFylLZ/HKVCwEVP4CYKkyUCiCAhQRQNqgLzniSgpHIQJwoFIoTAcbq2jQ0/IUE8mbRuvPHGNLHanoTaod0mPnGG1E1EcrG/5H/VVVclDBAoddCmPFG6jyqhXbbJQbbkJwK8tgkgKS+TtiNvfdMsjq5HChHRdhOXRuoCa3GotJdSiFhROOsnb+EsjBUkC4FpZ7JNEiKD2ApGmgmycvQbooRYCwarn+F+4IEHpvEjcCnyZ1wgvciH/tRnWck67rjjEtm2DyIiZ7seWMtfdHjfBfv7GWMIknMIkjpNrCl4zis3K1Ou0WfGJSJ24oknpjEvSCgsfSawru9BJ5Io8YKbtltJ7ERdI8/OIxAEq/MYRwmBwLAImEA5tTMrHHTQQTPi7ZiUqDiCFiJhJo9W0korrZRIiSjn8jEZUrPkR/GxVQgCYnLeaqutkqLAvGICM1GIrI3IIFjqY7Jddtllk5qhztQ2eTPLuMckqk0mVKqYiYbCxbRlckN+XI8oIHAUF5MuhUJ+2267bVKjqCLKd1C64LHJJpsUe+21V3HKKaekMkzq6kIFQ85sf2PSRtgc2qedY5lIYaZdlBDBTruVmLCQJUof9U7E+p122mnG+KivBzKCvOY9I1sdL/X55veioOtr0folShrVStIPiC7iAqusGiIYCLk+dI126H9kUF9tscUW6b3xJm9R+pEl5AtJc61z8kPeKGeC7zqHbKkTBcx2Uh5SjGFl8cNC8CZPnpyIKNJt/HpYoKp99KMfTeeooe1Oxkte0en7EikQCIIVYyAQGAcEKBLT/8+p3ZY3yFBOntJNKFSmTFjyuWZeEZ0cQNOEYuI2ESE3olKbdJhu8nt5mxjdh/gIsIgkmRBdg0ipJ8Jk8mSOOf7445O65D6THT+Xb3/722lSY44x8SJVVAWqGnOiiVRCnBArJEn9vJdMTogdosWEhNxkgoOU2WcOKXMPZcv1TEEIgHpTRZiOfLbrrrumPFv5w9yJIGYcWsmjmXtM0PqbkkMhRJREBRciAckbKcEdTtpuXLWbPBiPFFUJ4dWXVEaJqZL5FCFCYIyrXL7Ps5nbptnIvPvkRd20ubgxYfsn92i/dkjIonOUrfI5YxCRQuCNEYkqhozJG8lmatf/krGmH41D5erLXL90QRv/qIPvhDEXBKuNwFY4qyBYFe68qHo1EWCG8xSendr5qpQTYmLS9ORtj7dWTVyUHD/6iItJ0f8mSJNeVjmQLJOBCc3kZlJDbCg//LVMihQi/k7qRDWiEjBd8pd573vfm66nIpjcmBcRm7x9i4nXBKcOiBpfHuqMyZgKguCZlF2nDrDxqq7UDvflusJIXZkf+ePYO9G12oYEqD/1IptEqYNLLLFE8vMq49vo//BHLJmX9EknE2IED0oPggpfil4jChzyZc9A/YpkqW87E+KiD/WNvkeEsplSP+ofxMVnmTCrEzKPgCH5TJs2dLZKVr8h2saU+5h0ESbkGemiWN1xxx2JOFE7jf98jtKFYBtDyDySRTlTvwm1rXuUa0zAU92UQQE07jud1FndjWdlRwoEgmDFGAgEuoiAJ2lmBKQlO7UPV7yJCfkxmQjb0MoE72mar4qJlx+Tp3k+V4hOTiYl9XCeqoAAIVk2tUWYTNbqTDXgeG6iUjeKFYWN0pb9tJixKBVI1i233JLIjY1+KQZ8q+TvHBMTNYFSg0BwdFdXxML/JmbkUF653ZlkIUyc75l+5MFhmtmImQlW6s90pF3lPQxzext91WZKnbq3m7CU60CBQx6YV8tYIUzNTNJIxNT/W3QAo2buLddnuP8ffvjh1NeURtjrs6wo5ut9xqTsvPGk35AbDw8I1pprrpn8t2DK1OsayqYxZhwZmzAwXpFz5F4exhYlTH87Z48/ZI2fn75HZpA2RAshVwemVfkhhMg30tPpRQqUNW23CEHZkQIBCATBinEQCHQJAU/+lB6O31SB7NQ+XPGe7JENKgxVAqlpNlF0xEw655xzElkxsSFYVKFMXJA4CoFJivqDOJkUJ9YciCV1QPBMkvxeJCYr7Tj99NOLa6+9NhFBm/9Ss5Az50499dSkKJncEC9mHBOjCZbjsQkPWVMfEyPHd6u/hB9QB2TOpIzYmYyzyUVdEDBtQta0xepIK89Msl/96lfTBO5/K86U2UoyMTNDUuza7Tie60O907cwRA4pc1Zoam+zySIEpIPiqH/0a7uSfuLczpncuDRukU7mY+MijyV1t7IQmUYcrUZFFKlK+l+99AsSRO2CLTKcx5FyKJPIFZLi3BlnnJGUL+f0MwXLmLHalBO975S6INTMghzYv/SlL6UFG+rA18s9SKw6GFudSMapY9eaeTAIVicQrmaes9WqXRujEda/mt0Xta4SAkwayBXz4H777TeT39Vw7aB0WeHHNGeyyRPZcNeWP/PkzhmcQnTUUUelSc3Elv1Sytfm/6kTTIOuYW6blQLiN0N7stmxPKl4mpcXny8TPaUpJ6Yb9zC9uScrU85TrShQJkET90h1UDaC6kDUqGg58WFSdtn/LJ9r9JV6ZeUecxXnf+pQO5P8YUe5oVqp/7777puIxVjKofA4kIp2bZ1z7LHHJgUUSUaEEd3RfJj0L8VUH+pfCtWsEvKDmMNBf5b7PZ+TF5KVzxljTKrqo6/L3w3EVR2MeXmWz82qLq2cVxdhH4xlJLBe3Wslz7in+ggYD7Me/dVvZ7QgEBh3BEw8TGCUIuasslP7SJVj6qFc8e2gDjWqYvlimwRNMCagRtQMEyJ1otGkDJOhoz6ZVEdSYSgXI01A6uqYVVK2idNRn7TZMZZEvUJ+EFvqRzsTImt1KNWK2kRlEy4DqR1rou7xc2JqU+9G+n1WZRoXCLKjkTrq3wk1NamZhCA5hksjnTPGEL7hkrHf6HdluPub/YxyZfUjZ/1GMGo2/7i+uggEwapu30XNK4IAU91oTu0jNcNkxcTFl4VfCfOJz2aVPOVbUWeSaYSwzCq/QTpPdePbY2JHakdTa5rBhcpBcUOWmduQTCvkmFDblfQ1M50gs8JicBxnnhtLQtqQQqbYSC9HADYXXHBBIsr6shHF7uW5xCf9ikAQrH7t2WhXTyDAHGQ1Gqd2k6qQDM0k/ip8VwTepH4hXBSc0RKCxYE4UnMIMD1y6GZaRSw4LLcjWeEm/hh1iUM+s6PI52WzajvKkQdSyD9pei0ECAWOCjqWxLcr0vAIGC8c2/Ut5/uRVNvh745PBwGBWEs6CL0cbRwXBPwAl53aRcJuRIEqVxaZYk40UTIr8VGK1BkEKEx8mJh5EKxZEdlZ1YIvnLAF1MfDDz88+Z6JSr7DDjt0hFypjzqLui6MATMnv7ZInUGAnxcfSWFJmjGvd6Y2kWsvIhAEqxd7JerUFwhwZBaugANvOVJ7s42zBJ7iYVVU3l6m2Tzi+tERYOqhEnLAt/rNirOxJMTGykCBWBEsixQ4Qgs90ekkHIbI98yEwhwwe0ZqLwK+2xaSMMNbwcoBP1IgUI9AmAjrEYn3gUAbEODUzt/GJNuoU/toxTJXUa88MVNYPDW3yz9otHIH4Zy+4nfFTw65ylvCtNJ2/nbUI9u6WDFKeeRrJbRAN5PxIQSE7ZFM/lZCjtUfq5v17+WymHyt/uQbqW89AEUKBIZDIAjWcKjEZ4HAGBAwyVrJNVKk9lazXm211VLUav5cHJr524wWeqHVcgbpPuqOIJaCn4rzJR5Xq0mICJH3sxJmyb78ymEqWs27lfumTJlSHHPMMWnbHaZpcaeCZLWC5L/vEQJC/zLXizI/ockVk//OKf4bBATCRDgIvRxt7BoCVotlp3ZOr806tY9WUaTKkn6BGM8888xEDML8Mxpio5+DHYXxrLPOSiZBfTVSuIDRcpKP0A6Ir2CpCJUl+8x040Wu1FeYBvHWmCsFZhUtn19YpNYQQK48NJ122mkpoKlAuPGA0xqWg3KX5Ug1X9wINDooHR7t7BwCvkfMBiJT//znP08+NyPF6hlLLUzmSIFAmAJUWlkY5sLmEGUWtFpQX+kjRKQVR2W+OHydRMw3Ads/kIN8s4sZmqt9c1db5fbFL34xxSyzfyQfrVCymsOQWdACCNHjLVJg9g+/q+YwHLSrLTgJgjVovR7t7RgCVqHZvoV5cP/990/bhHSqMCSLisUkZQsckbsj5lVjaJss9RH8mHj0VbPkCkGzqbBFDA5hMXbccccxO8c31oLmr0Kyjj766DRGdtttt1TfUF8awxGJtlDB9k8i2jO9BrlqDLtBvioI1iD3frS9rQhQL0y0nIptVWI/v04nIQA42959993piVpU8OEiq3e6HlXK39Yrom5bjSkwJLIxUmT54dpFpUSkmRYvv/zytBeeSZdjfK+rQk8//XTx5S9/Oe0Rac8+ju8itUcaGQHbLulnflfCrDD7jnWngJFLizP9hEAQrH7qzWjLuCHAqZ2jNPWKI7of4m4lhAGpY75YY401ko8W35ten+y7hU8uh++RVZhwsmURxU+8qGYIKRItrhk/HKSWUzy/rYUWWigX0/OvSDl/rCeffHLGhtow6PR+fT0PTF0F+dVRKEVpp/4h4r5fvWT6ratyvO0xBIJg9ViHRHWqhwCndr5QU6dOTduJHHrooV3/ERYfi6Jy7rnnJl+syZMnJxNQPGn/azwxCVp4QIVAsqg3zWyGDF/xsYRxQKJtVM2XCcHKmw9XaeTaXYBDPhXPggmKq3ASQR7+1YsUSv558GEK/NCHPpTiXZkwIwUCjSIQBKtRpOK6QGAYBLJT+xlnnJGUDYEkO+HUPkzRw37EBMRp22oxztYTJ04s5plnnoFd6URZRKioixdffHGx4IILpkUBth9qNAlAansbytdDDz2UVAzKVzNmxUbL6uZ1FD3buyCdiCLSaVscatag7qdHocyR98Uw23jjjYtdd901NnDu5sDso7KCYPVRZ0ZTuo9AN53aG20dk6Egl+L02OtOBHgqxVxzzTUwZiAKDcfkRx55JBGjF154IfnE8Ytr1CQoDwFDmQLFyBK+wWKCdu1P2Gh/duo6Zq+jjjoq7XPpQYECyieNH5+gqBZMVFGdawUvKjRfKxj43pgYrRS0B2ioeq0gGvdAIAhWjINAoEUEyk7tFA3bZfRSorqcf/75afNiEwU1a/HFF08mj371t0GKBPuk5Imiz6SnzXzillpqqYa7h0nx8ccfT+TMK3OiyOjzzTdfw3n08oVWQAo3QJ2jXMHIRuJnn312wu/d7353UuqsrBTHq1+JFmLF9ItsiuRvRa7vMfWXH2OkQGAsCATBGgt6ce/AIsABlrIxHk7tzYCOcDz88MMpHIFtUzbYYIM0cdo/jZLTL47wJkqK1bPPPlt873vfK26++eZkGhVJnfmrUZOXfJgUbZLMRGSS3WeffVIE9GZw7/VrYcSUzEG/vNqV2RDREL7C6kLjxUbjnPj58/ULMff9Raw4+tur0XgRNNR4sQdlvxLKXh+X/Va/IFj91qPRno4jYBLmi8OhfP755y8OOeSQnjcjUCoEw7Qiyio4CoXVjosttlgyI1Z1qT4VkRmPWscp2epAptAcNqGZKOqUr0cffbS48cYb0x5+66+/fjKvMrP2U6LO2YCaoz4z2HA+g8gqMzMFVABbCh6iimjBw71VTPoYgX7iiSfSA9L06dOTGVD8MptwV7VdVeyLQahzEKxB6OVoY9sQKDu1i9TOh2W4CaptBbY5I6Yhipa4PiYZK8csPef0jZhYMdXrPifUBwSAAsF8J2CoV8rDlltumRSXZqLac4Tnf0PJsGrMxr2i44t23o+JQsWnjBlsVvsuIiRwMV78by9D40VwVuOFX1qvq6AeLvhKGi8ejIwXuy14wNhqq63SQ0avt6Efx+EgtCkI1iD0crSxbQj4kTbZ8O2xtcqKK67Ytry7nZFJRvwsvkpMQ1aQceBmPkS0TJ6UrfE2CzFzUqo47yNW6m2i5C+D8NqWZtKkScmPqFkM5SnEBhysHrMggFmsn6N0n3jiiWlVKTJKgW00wRxOxj4Vy1hxWE2ZxwtyPt7mNQozlc5Y0b/It7o/8MADaTWgDdKNF6trIwUCnUQgCFYn0Y28+wqBXndqbxVsGwFbbSe6OTMi0kK9oWohWyYiK8qQLQczih+OTiRlI3tUB5Okg0mHb5XQE4899lhhAkUGqS9WR7a6OfNLL72UTIrCFFBk9thjj6Yc4TvR/m7k+dRTTyX/u1aduPWH1XbGi9hilCzjhYmNmus906yDksj/rZPjhSprvDiMZUTZIgfjhcnX+BBl33ixOrLXFdpujIEoozsIBMHqDs5RSsURKDu1+7Hm49OPCaHxxM8J2iQqvAGChWiZPPngzDvvvGnytI+dA+FymEgdFC8qhiNPrIiTYJ0OihSS5ECmmOjgmydK5jp+Yj/96U+TbxUiZPUeHyDYm8jHEkCVskHNsLec/zfbbLM0+cY+js2PaIouk7PxYhWi8UPRQliNF+ZWahdiXh4vTHL14yVNRrP9i7jXjxfjxHgxVsrjBaESbd14sYiDLx7Vim+hbYCMF2M39lxsvm/jjrEjEARr7BhGDn2OgB92JoYqObW3q0tMoFkJ8GrVlUkN6UK0TJ7ZdwtBoVpQCDLhyubFTKpMlIiUiVg+CA7/GI7qiBRyRfUQNgCREpeJktYOc45yTcbTa47NgobyPxO+QVmR2oMAQk5lpBwh6tQyyVihmBkvVq9SlbIqarxkwoWUI1d5vCBTlOPyeDEmqWjGi1d560vjxHgxbhC6SIHAeCMQBGu8eyDK72kE/NgzT1m2XkWn9k6ASyGgFlCYfvGLXySTjInOxOcc4oTMIFMmSsnEiXSZTJEwEyxihjhRp6ge1DGO6o0GAm2mbepGYbnuuutS3fgfWRkX5qJmUGztWkTIeKEyIWBMeAi1PuE4jzxRMI0X8aiMB2TMeEG2ETE+XsaLz50XkZ9CZrw0s6ChtRbEXYFAawgEwWoNt7hrQBAwCfSLU/uAdNlMzaR+IIG33XZb8rfiK7Tddtsls9FMF8abnkCAuVYsKkFdIwUCVUcAwXpV1RsR9Q8EOoEAp1lL1CkfW2+9daVXDHYCn17OM2/OLDaWrU+8N3ELJhlL8nu556JugUB/IRAEq7/6M1rTBgSYLDjufvOb3yzWWmutntsGpw1N7NssEGOhHATK5KhvpSGCzKQ0aImCR4XNPk+D1v5obyAw3ggEwRrvHojyewoBTu3CFjAN8g0yOUfqfQT4e/HtEaeJamWVmlhlVpPxARvEZLUkFdYGzlWO2TaIfRdt7g8EgmD1Rz9GK9qAAKd2zttXXHFFcsA97LDDwhG6Dbh2OguO0lasUa2QY6Rqiy22SM7QnS67V/O32EDUdk7gHMMjBQKBQPcRCILVfcyjxB5FQMgAk7SVTgcffPBAmpV6tGuGrRa1UWgH259cc801aYXiAQccEGpNDS3KlbAUU6ZMSSs0hwUwPgwEAoGOIhAEq6PwRuZVQaDs1L7NNtukaOFVqfsg1pNCY1n/LbfckiJ3r7POOsXGG2/c1PYv/YqbBwUbX+f4UFVppzAMEXahKr0V9WwEgSBYjb0a5XkAAEAASURBVKAU1/Q1AvVO7XxWIvUmAuIlia109913F7a5ER/pwAMPTM7svVnj7taKmfvmm29O8b5szFwl8+D2228/ENsVdXdERGnjiUAQrPFEP8oedwTCqX3cu6DhCghkamsWqpX4VjZn3nDDDdsS6b3hSvT4hczbzIMim4tqXqW0/vrrV6m6UddAYJYIBMGaJURxQb8iEE7t1ehZW6bwJ7rrrruSakWVOeigg4p3vvOd1WhAF2v54IMPJud+4UU6ERW/i02JogKByiMQBKvyXRgNaBWBcGpvFbnu3We/QqSB2cuWPLa52WCDDYI8jNAFSy21VFKuhBiJFAgEAuOLQBCs8cU/Sh8nBMKpfZyAb7BYfnEvvvhiMnfdeOONxVve8pa0spPpK9LICCyyyCIjn4wzgUAg0FUEgmB1Fe4orBcQsBlxjtS+9tprp0CMvVCvqMO/EKAs2qKIasXvatttty3WW2+9tPFvYBQIBAKBQFUQCIJVlZ6KerYFgbJT+4ILLlhstdVWbck3Mhk7Aogv5/U77rgjbdBMjbGHoHADkQKBQCAQqBoCQbCq1mNR35YRyE7tV155ZSGO0s477xyR2ltGs3036hd75tk78KabbkohBnbcccdCbKuIi9Q+nHs9JysgX//61xdzzDFHr1c16hcINIRAEKyGYIqL+gEBk3iO1G4V2iBuANxr/cgXzvZEVCuxrZZccskUfXzRRRfttapGfTqMwEUXXVRMnDixWH755TtcUmQfCHQHgSBY3cE5ShlnBOxXJz4Q3x7bh6ywwgrjXKPBLv6f//xnWhWYfeG832WXXQrhBV796lcPNjhNtP7nP/95Mfvssxdzzz135Te1vu2224rFFlssCFYT/R+X9jYCQbB6u3+idm1AIDu1c5rm1G6Zf6TxQwDZ/clPfpK2c3nooYdSPKvJkycXCy+88PhVqoIl//a3vy2mTZuWgooa0695zWsq2IqociDQvwgEwerfvo2W1RCwtcojjzxSXH755SkAYzi1j9+w+Mc//pE2Z/7ud7+bfK1e9apXFbvvvnux2mqrVV596TaqFD/hKyhY6667bpCrbndAlBcINIBAEKwGQIpLqokA5+mf/exnKfo31YQJ6rWvfW01G1PxWltU8PjjjxfTp09Pr0y0m2++eSK9FW/auFT/hRdeKO65555imWWWqdyWOOMCWBQaCIwDAkGwxgH0KLI7CGSndtusHHzwwcVCCy3UnYKjlBkICIthdRgyYIWgVYF77bVXsfLKK8+4Jv5pDgGq7DXXXFO87nWvSz5r//mf/9lcBnF1IBAIdAWBIFhdgTkK6TYC9U7tsTKp2z1QFH/4wx+KH/7wh8Xtt99ePP/888Waa65ZTJo0qZh//vm7X5k+KvHpp59OgXKZBq26jBQIBAK9iUAQrN7sl6jVGBDITu3f/OY3UyylcGofA5gt3Ephsc0N1Yqf0Jxzzlnss88+sTqsBSzrb/nzn/+cMJ0wYUJasNFPJu8FFlggqXL1bY73gUBVEQiCVdWei3oPi0DZqd3+dTYHjtQ9BGzObGWgJfdMg+uvv37x/ve/v3jTm97UvUr0cUm//vWv00KB1VdfvVh88cX7qqXbbbddRO3vqx6NxsxWg6DmCzwUSAQClUfAOH722WeLs846K225cuSRR4bfVZd69W9/+1vB8fquu+5KCss888yTVgguu+yyXarBYBRjsYDthMS9CtI6GH0erawmArPNNlsRClY1+y5qPQwCZad2kdrDqX0YkDrwkc2Zv//976co+f7fbLPNUqyxN77xjR0obbCztJVM+F0N9hiI1lcHgSBY1emrqOkoCJSd2rfddtvw9xkFq3ad4usmDpMtbmxBxIfmgAMOSIEv21VG5BMIBAKBQFURCIJV1Z6Les9AoN6pnd9PpM4ikDdnRqyYrfi6rbfeemmz3s6WHLkHAoFAIFANBIJgVaOfopYjIJCd2r/xjW8kk2A4tY8AVJs+torN5sx8re688860vY1o7GG2ahPAkU0gEAj0DQJBsPqmKwevIeVI7Sb+nXfeOSK1d2gYwNredzZnplr99a9/LbbZZpu0TYvgoZECgUAgEAgEZkYgCNbMeMS7CiGQndqFAwin9s513J/+9Ke0OpNidd9996XwAFtvvXWx6KKLdq7QyDkhYBcCezhalTn77LP3NSpWR77hDW+IWFh93cuD1bggWIPV333TWn4/3/nOd4r777+/mDJlSji1d6BnbSgs7pLNmalWVKwddtghbc/y6le/ugMlRpZlBKiEV199ddrIeeONNy7mnXfe8um++3/atGnJj2/FFVfsu7ZFgwYTgSBYg9nvlW41p/Z77723yJHaw6m9/d1pVeaTTz6ZSKztbpZeeuliiy22KN72tre1v7DIcVgE4M8ka0ucQdhv8Nvf/nby5QuCNexwiA8riEAQrAp22iBXOZzaO9v7zFFMrlm1euUrX1nssssuhcjhr3jFKzpbeOQ+AwEE1wMEQrvWWmv1vXlwRsPjn0CgjxAIgtVHndnvTQmn9s72sM2Zf/SjHxV33HFHYUPhd73rXcWmm25a2HIoUncR+MEPflA88cQTBdPgYost1t3Co7RAIBBoCwJBsNoCY2TSDQQ4td96661JYQmn9vYh/ve//33G5sx8rWwgvNtuuxWrrLJK+wqJnBpGwH6Ot99+e7HIIosUK6ywQmHLjUiBQCBQPQSCYFWvzwayxpzaKSu2ZIlI7e0bAr///e+Lhx9+uOD/YhUXU+BGG21UzD///O0rJHJqCgHmWfs68nl761vf2tS9cXEgEAj0DgJBsHqnL6ImIyCQI7XffPPNyeH3ve997whXxseNIsCXDaG65557kipoj7s99tgjKSaN5hHXtR8BZvDnnnuusEl2bJTdfnwjx0CgmwgEweom2lFW0wiUndo9zU+ePLnpPOKGmRFggqIETp8+PQUPfc973lO8733vK970pjfNfGG8GxcE8qrB8VQREb1umyb5+iH6kQKBfkEgCFa/9GQftiM7tV955ZUpcnhEah9bJ4urlDdnvu2224o3vvGNxV577VUst9xyY8s47m4bAkjN29/+9hn5Pf/884kEL7zwwsXcc8894/NG/smLFhCXZhYq/OxnPyteeumltIKx2TIbqddI12y//fbh0D8SOPF5JRGIddeV7LbBqHR2avdjH07tY+vz3/3ud8nP6qyzzkqxlSZNmlR85jOfCXI1Nlg7frcYZEzjiHGzyZ6Rxx57bNozspl77TN5xhlnpDhozdw31mvXWWedYsEFFxxrNnF/INAzCISC1TNdERUpI1Dv1C5kQKTmEeC/ZqK9++67U9DQ+eabr9h3331T4NDmc4s72okAU639Heeaa66kJpbzLp9beeWVk/lW2Ab96UCYqUtLLLFE2l5GPk899VTKT1BSm2+LxE8FdiBovlNvfvObU9BS78Xa8p5ZjlLG98u1/mea978Vps8880waQ+pHSWOqt4WPuGjG02te85py1VM+4qcNd26mC+NNINDnCATB6vMOrmLzslO7QIv8UcKpvbVezJsz87WyGfbmm29eTJw4sZhzzjlbyzDuGjMCCAtFFml56KGH0v+bbLJJsdJKKyUyk889+OCDaZsiRAeRYc61bc4jjzyS+g9ptsk2ZXeNNdYorrvuuuLaa68trApFeLbbbrsU5iFX2BgQ48wG3UzCTMRindlTUt5nn312Ujbdy7SI9EmPPvpoMXXq1BSTC2kSk4up3k4KSJq8mDQFREXUmDgpburnocg5pCyfy/WJ10BgEBAIgjUIvVyhNppQhA247LLL0g9zOLU333nI1LPPPptWCNpqhf/N7rvvnlSN5nOLO9qBgA2zEZLHH3+8QJ4QJT5xwmIgNdQpRz73t7/9LZ3LMcr0qX0hbZ+z9957pwCwJ510UtqL076QV1xxRdqEG1kTQ0s5CFhOiJf7lSnl98pBvix6ePe7351IGTMykuVa30Njaccdd0zE7itf+UoiUMbUiy++WDzwwAPJrIcgvvOd70x1WGCBBRIBy+cocM4hZzatftWrYtrJ/RKv/Y1AjPT+7t9KtY5JgoPtVVddlUwUtmgR9DJSYwjA7ze/+U0iViZNkzOCSgUsT7aN5RZXtQsBpjiKEZWJssN0ZtXmeuutV7zuda9LpttbbrkljX0rB/M5qtD555+fzHG5LhRI0d0nTJiQ8kSUhNqgcm2wwQaF884hRcjTSMlYcTAj8vNCfoyVpZZaKt2L6CFQjz32WFK4kK3ZZ589jSOmSGroBz7wgUQIBf+96aabihtuuCFtus5Z/YQTTkgKnXM+v/7661MIEOcWX3zx2HZppI6Jz/sKgSBYfdWd1W4Mk5YfZGaSAw88sKmVT9Vu+dhrTyFh8uFrxfQkCviWW24Zq7LGDu2Yc+BPxWyGRAmJgWQsv/zyibgw65188smp7yw8YNpz7g1veMOwJIR/FbLMFJd9n5Afn+WHEeE2kCEPK+WEUOVEEct+Vr5vlCVkT2IelB+fLXkzE/qfidB7CpWyXb/qqqsmnyw7AFC+EELR5xdddNFitdVWm+nceeedV9jI2diMfS1zT8RrPyMQBKufe7dCbfMD/p3vfCeZKkwy4dTeWOdRIEyQVAyqlcTPxgbBeQJOH8afcUOAMzqyi/T85Cc/KS644ILCXoMc0UXQp+i84x3vSFtA5XNMahzYEZpyQqwc5USxYhJEqJj2jAWO6pSynJRNScvO88/WFC7XIk18pNwr8CxfKQqV6/hm8ddDlITzQLrUFxljlmTK//GPf5zawrxJcdtqq60K9aF8lc/5LPt/jWQipO7lMnO94zUQqDICQbCq3Ht9UndP03yFOLXzA/GUH2nWCCClJtY777wz+e9wKLY5s8ksUu8gQFliukN6kQ5qj/HOvwnp+dSnPpXMbZzQnbNVjlAJlCB9XE+o6luGjN13333p+yO0CQf07Fyer0V+mBMpZogRH7B55503neYHJizDJZdckvyp+E4h5wgahUp91BUZ8x1FFvMuAPzKrCpEnpii5XnNNdek6/I5W1sJweDcaMrVtGnT0oIW/lyRAoF+QCAIVj/0YoXbwEzhx94PuEmAX0ek0RH4xz/+kfxysmpFEWB2sppstAls9FzjbKcRoPrkLXCM+eOPPz6pSAsttFBShKzIc/B9QrA4tDP3IcxemdeY5bIpkCkREWJys2/h5ZdfnvyyXL/hhhume9Zcc81EgBAuDy7IOOUKcXIdxcgrok4BtbqReqxOTIHUZOON6dnr2muvnXzEONIzA37wgx9MDuxzzDHHDPg40/PpsmH4MsssU5TPzbhomH/UjZIXBGsYcOKjSiIwW63WNdP8v23zlWxFVLqSCBh3TBVnnnlmIgyf//znw+9qFj1pcuSUzJzKpGJC5rvTTKTuWRQRpzuMgHF/6aWXJhWLYzkSNBwxRmioV8OdG66KlGALGxAwZK4+MSdTxJgLHeWkLD6QCBszIbUqJ3kiTerBP0vervd+OHVttHM5z+FeN9tss2LPPfdMKuxw5+OzQKBKCPhuhIJVpR7rs7qWI7WHU/vonWuSe+GFF5KScMcdd6QJcqeddkpKxOh3xtleQ4B57f77708qD/PeSASqTHIaaQMfqdGScjjJD5eUlU2G9ecppNSschqtbqOdK+cR/wcC/Y5AEKx+7+EebZ8naURB/J1wah+9k/jOWDYPLw7tzDvvf//7XzbpjZ5LnO0VBPhaCcfAJ4uJLlIgEAj0JwJBsPqzX3u6VdmpXeyccGofuavEMeIozNfK6i3+N7vuumvyxRn5rjjT6wjwNeQYbvVepEAgEOhfBIJg9W/f9mTLslM7HxTOteHUPnw3WSZvNRhixe9qYm0VmkCSnJ0jVRsB4RciBQKBQP8jEASr//u4Z1rIuTdHaucIa0+zvCKqZyo5zhUR94jzet6cWcBJ29xwZo8UCPQzApS9kXzE+rnd0bb+RSAIVv/2bc+1jFO7aNYRqX34rvnd736XYg5RrZhRLbW30XX46QyPV3zaXwjwxRRyIlIg0C8IRJiGfunJHm8Hp3bkSqDCKVOmpH3YerzKXaveX/7ylxSugq+VAJTMgOJaLb300l2rQxQUCAQCgUAg0D4EIkxD+7CMnEZBgBojGjRyxZfIJreR/oWA2EPMgVYI8k/bZJNNkuO/LUoiBQKBQCAQCFQXgTARVrfvKlHzslO7yM8iTkcqkgnQvnRUK1uTCBRqH7ellloq4OkzBPjUiSUlNMNIMa/6rMkD3ZwcuHu4IKwDDcwANj4I1gB2ereanJ3ar7zyykIUaYExB92pHSa/+c1v0lYoorHDBem0V9usAkV2q9+inPYh8Mtf/jLt/2frGP50QbDah20jOdl0mnuCrYKadaCnLgsIa4uiZlbv2vjavYLIhhLdSC/17zWv6N+mRcvGGwE/MvyubLMRkdqL4k9/+lPxgx/8IG2TAhfRsffff/+0t1uQq/Eere0vH3m2efNTTz1VWA1KxYrUXQTs+UglFvak2WRfRtt36b9m0m233Vacc845aTFPM/fFtf2HQHzj+69Pe6JF5UjtHLYHOcyAidbKSZvZOqgYW265ZYrkbe+3SP2JANMg8y/1yibGkdqHQFaCPbwxr5eVIud87phvvvmKueeeOwXpve+++9I+ihRkuyMsuOCCaTNqey/ahsoenz6nVtnwWj75sPG2ECrcHGxeTaWyfZVVj/Z1FJ3/2dq+qki04MDOSdlFwliwhyMXAAFm5UdR85BVT7wfffTRRMiHO9c+BCOnbiAQBKsbKA9YGdmpXaT297znPQPt1I5oMlPcddddhSdiP7Ac2cX8idQfCCDQUtn8ZzK+/vrr02drr712mjD7o7Wda4XvxzzzzDOqKQ9hEUvv8ccfT9tsec/1AMHyPyLjHGLrvX5AYJDcr33ta0lFphbLw+vhhx9eLL744sX555+flC59iVTttddeM9VDXyJmNqNGkLwXAFiMOsr0V7/61eL5559P5AtZy5uv+95PnTq1EILFHo3u3W+//QpuE3/84x8TkbNaOBM3fltXX311Mmsiec6pu7qGT1fnxl6ncg6C1SlkBzRfP2pk+UsuuST9cG2++eYDiYRAqi+++GIiVlQrT6/CU6yxxhozTcQDCU6fNVqYDQdlI/sYMisxB6+88srFkksu2Wct7kxzpk2blszlMKtPlCWLQqg7cPU/5chWWwjRQw89lM55RdScs2KZ0iT+nt+lX/3qV4noHHzwwek7iFxRrXyO1FCV11xzzeLyyy9PD0XlMCkIEpeHrEx5z+zo/XXXXZfK3GabbRKRPuaYYwrbXCFQSJ0xse+++6ZrP/e5zxXLLrtsIlp8MC+++OK0+AGZ4rPFV0yk/5tvvnnYc9S42Ey7fnT07vsgWL3bN5WrmR86T4aezvw/qE7tnmxNAogVkuXH0+bMCy20UOX6NCo8awQoGLY1sr+gydPEaoJk4kEAwr9u1hi6QigX+NUnRAbp4c/mu0Xt8bBCGUSk/N44Ry12btttt03nmAePO+64dE/Oc9KkSUlRZwbkJ4U0IWHe24pK+f7/xS9+kUhSvq/+NauWXpkebcC+8cYbpz4XdsXiBr+FTIerrbZa8dxzzyWihRwhdYceemjaJowT/fTp01P9Kf7LL798Usn8Xnz/+99/2TnKGtNmqFn1PdKb74Ng9Wa/VLJWOVI7Kf2ggw5KPwSVbEiLlfY064eZWcDhyZX/mR/fSP2LAHXEogXmLaEYqBdI1worrJDMO/3b8u60jFoEX0F4mdcnT56cfDr5MDHLIbNIzqabbppUKP6eTIZlk22uqV0RqMkICv9HD4L6z0bq2RdKPzon73JybU5ItO+7z/hXWmmY/SmVgbghg5RsaqbxgFwh3Yi4OvD9Wn311dNnVLCzzz47kT3tePOb35zUbteXz1lx7LNQsXJP9PZrEKze7p/K1M6PyfTak5inLqRiuCfRyjSmhYoyYXgaJfsjmp5aPRH7MYzU3wggVBQLKgqnZ6Ypm5hTQmIiHHvfU6J23XXXpADzseIvxZS2zDLLJLx33HHHZHJz7rzzzkvnmNssLECeygmxqld/5MVPkuKE/Nx4442JECE5OVEhfa99z/X1008/Xcw777ypf5n0nq05uDM1UrR+/OMfJ/LlPOKGMPlNdI4pEgFEuChd1Cxlc4xfa621EqlCvKh55XPCuHAv4Ls5HHHM9YzX3kIgCFZv9Ucla8Op3dOlSO2c2k0wg5JMrn6YKVaWg/txtIm1J9pIg4GASdykTak499xzk2ph0jWJUjQpmVSRrJ4MBirtayVyw2RmBwg+WPbq9CDnYH7fYYcd0nmEpHyOuQ3pyYQqv9bXbJVVVkm/XfyhHn744fSguNlmmyXzo3scSNgNN9xQXHjhhcnPip8XfyjJg9Rpp52WTI788KwQ5MyOoDERe/CkdHkIvf3229M5vmIPPvhgImzyZvqjdFPlzjrrrPRbgsw5t/fee6cHNqrcSG2ob1O87w0EgmD1Rj9UthYmF07tfpxMKoPk1M43xJNm3px53XXXLdZff/2kXFS2Q3u04pzITTgOvjZMNIi9z60UMw6ZbJhksinHZERBYvphkuGvg+yYBB0mLIcYVc61mpBs6oSDKYu6QWlQFgXTuOAv1Gygy1br06/3McExuzooPhQgqpW+d85DjcMDj3NeqVhUJH2MCHmfTXkCv/rN4reFpPGBygsTXGsc8dmiRLnG5usInvIolD7zQKV/kWsrF40zZkz9jlQjThQ36rbxyHeMIz2CRuWmTFnFmOuk7xBzpsN8Tp6RqolAbPZczX7riVr7ASKNn3766WkJ8xFHHDEQflcmdE6rfsQRLBMnM8Ugx/pq54BEnMQw4tvCn48/CzJr4nEO/plUlYkVcoXk5GRCyySrTLRMZg4EKBMu6tJcc82VyLEJlXnPuUaSSfnII49MEduRrVym5fWUl1122SU5L4dpZ3Q0qUbCIDCpNZr0OVxhXp9GO1d/rffGl/FDMRvOtOscFarsr5XzUZax6pz7y31tjBrPSDyiJ+/R6jbauVxevPY+AsZkKFi93089W0M+CRxMTYAitVvd0u+Jwy1zYN6c+X3ve18yXZicI7WGAFJicqJKMKnxcTG2KFVZrTI5cSB3ID/wRoooUFQEZMg11Ko8uZkQTW7yR8yoXhQwZM2YNekxIVGcXGdydMhT/soypsU0Yg4qqwzllrrX4YHD5Ola5ilqBTVDPpFmjQBFCAFpJg1HhPL9o53L15RfqZqjJeNqpPopi6/YcIkCVfbncs1odRvt3HD5x2e9i0AQrN7tm56uWXZqJ4uT1/vdqZ0pKm/OzPeDykGZKMfK6ekO67HKUaCQm2drCqhDcEbEx2FC4mzM3DNhwoT0PzLV7MTjegfyNZp5jmKA0DE3qYt+5s9DmXKfsk2Q6uIwkZbJFgKnPQgd1Yopabvttkv1L1/XY13Qc9XhCB4BeHuuW6JCY0CArlp78Pr38tMx5BW3DggC1AAqzqWXXpp8jgTY6+dE7RDTygpB3xXOtvwuKB2RmkMAkeEELPaQZfDeIycIjFVhCKt4YY2a55orvfGrjXGESxwjZIuqRiGjbCEBIvLznUG++OAxEVI3xX4TsDJinjWOdVwZCPQjAkyEQbD6sWc72CamEKtf+F2JUC0qsomnH5NJlvMqXyuO/ExFYvCYXCM1jgDncwqV5eu2MeF8DFt4rrTSSsl3jSLYywnBssKMeqkt/GyobMYCM6ZznK+tomVmjBQIBAKDjUAQrMHu/6ZbzwTCubvfndqpVHyC+FlR6nxR+FpZ1WNijdQYAsg4MoWUUIKYBPlLWRZvBVXer62x3HrnKsqWsCRWhnGMZoa0wAG54rMVq756p6+iJoHAeCEQBGu8kK9ouUxll112WZowObUL5tdvyYRJaaFaMWMJHGl1E9+aSI0hgIhTeaywpOxQfzh6W/qOiIzmD9VYCb1xFX8xfloWeiDk2igukyX2/s/O9r1R26hFIBAIdBOBIFjdRLviZXFqN5E4OKMKoNdPCSmgsPCzolpRIewtJmZNOCo33tOIhiCK1B3O4hQdK+n4VzXqV6UvmBA5n1MMe10RUlcmZFuaGEPIuA2LrSSM1aWNj524MhDoJwSCYPVTb3awLSaQ7NROhdh66607WFr3s+ZDw5GZIzuTlujJVoJZMRapMQSsshTuAIZUK6EUYEjRmdXy91wCXy15WJnKDOc953dkha8TxSjnLd+cbDVCMRNEknLkf+SOiZJDuqjaSLJxzMQtHIT3gky63g+hfreC0IpACbETNsD5RhP1k3+irVY4vKujAKPy6Vc/xUaxiesCgUFDwO9KhGkYtF5vsr0mKU/nF110USIezGX9kigkL774YlKtbHNjEkQe7fkV5p3Ge1k8Kf5qzKriUAmuaV81kaybSfy0RL3mCI+gUbIoitSw3XffPa3gPPPMMxPhKhMsq/iUb0sRsa6+8Y1vJPMuEiWkAgWNA7o+vvbaa1OwSH5TQosYzwiYPERhtzJUG9Sd4tYMwUIktRsZVG/lMTMjWfz38tYqzWAySNdaUGKxw0ixpgYJi2hrfyAQBKs/+rEjrTDBedq//PLL06RjCXq/PIlTrSglJkJmLeYc6lwsr298KFkMINQCs/G9996bFD8hOyhDzSYBQK+55pq08S0yZVGB8SdvG+Qi+ZTFkULK+BxhRpIQPX2JOE2bNq246qqr0riVP3+wrbbaKo1r1wqzsO222ya/O6bIjTbaKBErClargXORQ1upCDlxySWXFNdff30aY3l8ebKN9HIE9BVybk++SIFAPyAQBKsferFDbWDmsD+XWEWc2uujEXeo2I5my+yENCJWVoJRHQSFtLItUuMIMAlSnJAUBHWLLbZISk2r6gMTnfyQEvs55lAHSAkVST9l891IteQnaIGC8CEeBtQFMcsbBKsn4iZOFWWJE76YXBQ4Y51aSwGjfAnB0KwCV18vSpbvDXWN6dQiEeX7vF8eVOrbPJb39913X3rQGUsecW8g0EsIBMHqpd7oobpQeOz8zqfEPnv9sGKQSkJpMeFpn9VeNny1MWukxhGAHZUI+RZ2waKHssmu8Zz+fSWCI+Aok145gKsVh0xsElPhaAmB0ccIFmWKUpSdzPleMf1lM51X5bieCqd8pslM4uSBiI11hwL1YIakjF5xxRXFeeedl1QyYy+TyNHaFOcCgUCguggEwapu33Ws5pyBPd2bQEn2opZXOVEmTKJUK0/JJlak0VYskZpDgKP5rbfeWtxwww3JeZt5rR0hLPi8MQkiWVRGZEhi9rM/YTYN8p1yXTl573PXul9yPYJFKUJk5OlcNs/xr3JOOcyB/O6omFY7eqi48sorkwLG3Nno6sdyner/N9aMO76MTGFIqh0B+iVkRX17430gEAgU4eQeg2BmBLJT+4UXXphWZTWzs/3MOfXGO4SA2kKNMwELLyEgJD+ZSM0hAEs+URzFmfKY4doVLJSihOhQml566aUZ5mg+U3ywnBf13TVMgUyUiA9yhazwn6JEMu957zyzIpOfVwqS1YXulVxjrPOzcp8HCWqXcqw8pJYxHSJl7SBYykTW+JdNnTo1+TWqOwU1SBZ0IgUC/YfAK/qvSdGiVhHw1J+d2k1YVXZqNzEy+VhRhhBQOGzOzAk7yFXzIwQhoVzB0oKA3XbbrW3kSm34WXFiR7CYcJE5ZrtvfetbSXk0NvkAWmXGz0pYDUorXyq+W0iK+5ElIR6sSHu2FnbBGGDGZMKkVgkDIVaVcA/KcD3TIkd0q/60E8FTHnMlQtfOhOjtscceSSnjfI/4I4GRAoFAoP8QCBNh//Vpyy3izC6Gj9eDDjpohorQcobjdKOJmTnQ0nsmIY7FEydOTH4541SlSheLrCIfzIJMaMyryEc7E4d0Du2IERMa0oTkcFK3qbKVZUxsttgR9+qUU05JvlauR4jcS3kSJuHcc89N55FqDwxUS+qXVaN88I477rhkMkbK+FghYEzIYr2JzI60IWOIJEWs3QmpQ/bPOuusFJxUPQS0Dcf3diMd+QUC44vAK2vFH15L41uLKH3cEWA6oRZY7US5EtyxaolZiGLBd4xZkMlnhx12SDGI2mXmqRom7aivVXgctJnTdt55544Rb+oU8sHxnPrk1dY6NtimTvHTUgdkDHGy8pD5jxkbiUbAED9ERaBRJmHBTpEvnzuoXvKmYsqX3xVHdHlStChofLaEa+CI3m4FK/cHUmcbJooaMmnVYrtJay6rKq/MsuKVCa8RKRCoOgJHHHFEISBL7UFxqOptifqPAQGTDmIlZo+JxeqpqiWq2/Tp01M7KBcUK8EdTbqRWkcAiTEukB3Em5rU6WQln/L0I3XHa30yZrN/FZJVTnybsq+V/i8HjeV3xQxImapfxeecPJnH5Zkd4st5t/t/ahnFDbkS5LbV2Fvtrtd45GdT8CCa44F8lNkJBPx+BMHqBLIVy5MjsR95A0LcniqZKrIfDvMO3xw+LptvvnmKNVSxbui56lJ0KFcULKsFq6hq9hyow1RIPDYk1kpDIR2QykiBQCBQbQTMp+GDVe0+bEvtESo+LlUKgEh1FTiSapU3Z2YqEjOpU2adtoBdoUz4I/Fb4tcUIS0613HMlJQsRMu+hfyxIgUCgUD1EQiCVf0+HHML+KAwqVUl2VSXqoJY8acxKW288cZticdUFQw6XU8hDUz4fJWMjbKZrdNlVy3/7GLRqkkRtqLX8x+EubhizeyBWDW8or6BwKAgEARrUHq6D9rJt8YSe6sDrWqjvNmixRN/J1Z79QFkLTVBUE4+eRy+bSPE8byRJCAogqAvBO4UU2q0xOeG7xz1tJtmMf5Zxg//LOEbrCyk1knIDt8spN0Kw1ltl8OfC9FHiKw6bDUJQcFR3wpKQX49MORgq63mGfcFAoHA+CIQBGt88Y/SG0SA87FJUPgFPmPCBZiQLM2P1F4ErNATHsGk3wxpsArsyCOPTKs3P/OZzyTla7SaiVelLCsFu0mwkLoLLrggrVazkk+sNKZmbeVQL8yHVySHT5TVjSMl11588cXJP60ZrIbLTygJK3nF6GKS5fAdKRAIBKqLQBCs6vbdQNTcUvsXX3wxTYCUBqu7ttpqq7SEPsxWnRkCDz30UFqFh2DUr7QbqURKDrMtc5kDGbaKMxMWoQjErGJGQ6iEXbByznmKF386xIIKRjWiTlpRp3xEDMFGrCVL+fkL6v9nnnkmlWXVIcUMyUFMBCIVH8uKREoVNWq4FaW5vnz3PvrRj6aYWBZLXHbZZSmCvEj1Qj2UExVV+7xK6p6TeFrOCV6aVa1GFUBtFVEeYVP/IFgZ1XgNBKqJQBCsavbbQNTapE0VYRJk1vGEb2uRdm3PMhAgNtlIZIHDtbhQVMJGk7hTTIr212PKRbYQIuSC2VDUcnHKqEfOCbRJJRMHykbizIWUJATMgbwIWzBhwoS0QTKiJHwC3zBO93vvvXciWO4xRihgSJawEjafvu2222bsJ2hrJOElhiNYuX1InvPqS7lT1tFHH51iVImjhQhKVq1ed911xTXXXJNMeNqKkCFGyKHVgB4ExF0T9gEeH/jABxqOcYV8yv/JJ59MDxF5s+pcz35+5YOGdA9Sm/u5P6NtNZeDACEQ6DUE+ABxXr/88svTYWKeMmVKCnIZ5KqzvYVcUV+YqATDbCRRgZAmKhOzLcJEPaJIIRlWIlKaKEFiaZlEEWZhIOz3h5jYhJtytddeeyW1CTlDxhAa56lZ++yzT1olSglzqKeyxW5DuJjykDkkS/6UT3smIjkWcjSTkCyEC2lD7nKSN8KPiKkrH67s3C64LX8s4SzshPCOd7wjKa8izzeaYO5BApHUxkFKNsI2/iIFAv2CQChY/dKTfdKO7IA8veYTY2LjwG6CbNTM0icwjEszqDEmOKQGcWg0ITrIFNUFUUKuEGSmsnXXXTeZupAQ/kVIh1Vy5YCaVCwrQ12rrykY8stJbDPnHEgX8kHdZCbkQ0U5u+WWW9Jr3gzavcyF9p5kHmw2wYKTOSUqq1fygI8HAKoWMsksSX2TECnmTKY9voL8y9RNfZtJyC0FDi7I1qCYwh988MGItdbMQIlrex6BIFg930WDUUFKh8mIOuCHlsmHqSfiL3Wv/6k1VB/mQaSm0cS0w0TIb4pSlckJvyvqE5KAOCNNiAO1q6woIU3UrLxqjp9dOTp7+b1rkDVl8HeSH0LHlIiIlMkQolYup9H2uA5BRDT5UZVXqCJ2ysmx1hCwfN6ejdRWqpxrHPzFmlVdETRKFmIGN/0RKRAIBKqHQBCs6vVZ39XYxH7HHXekydIESsWwQa8YTJG6hwAyhCQsscQSMxGV0WpAzUGYEGQmPIRC4keELAs5gCwz333iE59I/cyB3D05Oa9c6hCyhLAhauoxWuIITjGy3yQ/q1NPPTXdy2woZdPdaHnkc8gU/zP3MAPysULsqGTlZNWqa6h1iBT/K9dL2sjXi2rGaZ5pFFFrdhz7DihXf2TCW65D/B8IBALVQCAIVjX6qS9ryQRI+UCumJMoDiYnjr6Ruo8Ax3J90szqNb5SyBK/KiQnB8hEVpAr5xAMcbWQEaZAZjUmQkRKQqSQCWPgxBNPTISFeS0TJK/5/zIq8kWClIPIcJpXLt8lhG1WKefrlZnv5JNPTvkxeSL9QjTUO/ovueSSCZ+bb7451RNmiJa02mqrJfWV7yByRcFDyDwsNJsm1BQ5JkJ515O8ZvOK6wOBQGB8EAiCNT64D3ypTEL8rBxMLFZh8bFp1aQz8IC2AQDEghLVjL8bciJQKAd1JCsnpEA4DX3LT4pJDwniOD5p0qS0Qo7pC5FwCMfhWuNCXpQgYQuQL/fKQxIA1FhxHiF3PWJGgfK59xQxZAdZHM685rw6uF8ZoqhnkySzHsd4JJ9p07Xl5B7EiymS2ibcBBJGuXPkFYyUJ/5mm2yySUs7DHCyZ24UZytSIBAIVBOB2WrVrinq/5LUq9mEqHWVEKAsMK9QrTzhUzwmT56cJrUqtaMf62rDbyrQYYcdNmpwzVbajizwJ+KzVB8ugUpzww03JDLBMR1hEotLeAMEZbSEmFHFmNX4RWXlij9YJ5MVkwgcgpZ9sJTnt5SfFsKnndlXq9m6UMaOOuqotMjDRtuDkBDXPffcs7CnaKRAoOoIePgMBavqvVih+nsat5LMCisTrUCWYhrVT7gValJfVRVRQVg60R/62zFcoh4hREyGeYWgVYyNREanJJXr22lileuPWDnqkx9V9SnXqf6aRt67n38bYjooieI3q+2VBgWLaGd/IBAEqz/6sadbYZKgViFW/EoWXnjh9JTKnyXS+CFAZeFDxZyF2IjjxDxXVmS6UTsES4ws4RvUh1mPiXG0LWq6Ua/xLANRZBpFsgYl2feymdWrg4JLtLO6CATBqm7f9XzNmUv49VCtBGBkLmEGENuqVdNJzze6RyvIdMYUh0ghVA59g/yaxClXyA2CNR4JqRKgczxT2VWCEtULqVynXqhPJ+vQiGLZyfIj70Cg3QgEwWo3opFfQoA6wp+Hr5UVYRQJTshUikidRYCjeg7ImckUh+xsAkSmkCoklzM11UCsJiYv1/EtGsmc19maj2/uQkPwD+RAP97jVB9wuOdbFikQCASqiUB8e6vZbz1ba2YNkzTVyvJ5ARM5K6+xxhppf7eerXhFK4YsCSmQlSmvHKQ5Wmci5ZXZzyo/RAqhclCr7LmXkwCvwhy4dxAJFh+w66+/PvkGjjfBsiAgO+7n/onXQCAQqBYCQbCq1V89XVsKifg/AkxSUEj+NmcWCyjS2BHIK9Syz1RWp4QmQKLywfEbecpkyityNSvSxLHapK7vmg2OOavWCdFAIbL6Tr0RvlVWWSUpm7aYEaxT/fljCZMggKixRMnhq5f353OvrW+sPvU/3z5hJcTVsvpQrC3+S3YAEEIBgYSPVYkIFAyco6jCiWKlHCZUdaC8Sl7l56D2ccAWhsE9lFkk1CEfey+2OyG66t7ofpDtLj/yCwQCgbEjEARr7BgOfA4mRpMd1cpedPxpttxyyxSLiJkjUmsIZCd0qpRDME5+U1TCfMgZ3khUPpj9hlvhNqtaiPFkUteXs4qiPqu86s+Luv71r389ETjl8PdCuPbYY48UhPTCCy9MK8gE5UTwKEmUUASD8z3/MaZP5F0wWk7xgoOKGC+OFaJ1xRVXJFwQUcRIhHdkzD6FV111VQqhALd8zoo15SJYyKV2I37uv+eeewphK5AzplQ+hOJ6IW0XX3xxCqCK5O2yyy4dIVj6G1GMuHD1IyneBwLVQSAIVnX6qidrSpG499570zY3HKZXX331YuLEiWmy78kK92ilyk7oJleTPVJBwUFgEYOs8AjMmf2mKDcIVjsSlQvBoB61O1E3mS4tcEB8RHZHkER6pwRp6zrrrJNIOdLk2t133z2185xzzknjSyBaY8w9rqUkZV8lhAwhcQ9ihhxNrwWxpViJsYUkffCDH0z5OoeoIaIUL/lSyJAtOwsgVfY4NLYRQETKNjy33357Utj0DyVLjK5mNsVuBlP7LKpzu5XEZuoQ1wYCgcDYEAiCNTb8BvZuZhPO61QrvjsmecoCs0+k0REoO6GbrB1IARKSlSmvyAEClZUpr1SXTqmCykKwbDWDzCER7UzCc9ijj+mYSoQoKUtiZqN6GkfULcqTRRFIBsUJ4aFmIZaUL6oTEsL8LC/EiHkRqULYmPuMT/e6nkJVPuc8EidSu3IQpWwiRG7di3RRx/QDRQshdI7KZ1sgAXLVr90J9syZyBVyNyjJeEB6IxbWoPR4/7czCFb/93HbW2gCYzJBriRqAhWgmS1W2l6pHs3QZJmd0DOZQiBgWCZTJu3shJ4JlQnW591KzFEmdKREXZGZdiYKk0PSdrjAAWFErJQvPAJi5zpkLyfvjS9EDNmyGTOiiojBSH5Iv2C2CBd/qUzknHNtPscHC6HSTuUhUJLy5KU+uQ5l/F2nHj5T106QK/VgClZXW/C0S52Ub6+nadOmpQUGFsRECgT6AYEgWP3Qi11qg0nqueeeSxPcww8/nPZy8xRvMov0r21SmJUykcqvTE6ZTJn8Td6e0jOR8iqoZqcm7Eb7BrHge0U90b/tJliIJdUJHkxzCJZ2c+hGdBxIJhWDmZIq5fyz/7eH4YSaaRTJEfqDSXCDDTZIhMv9ruNwvv/++6f8br311qQAUaic4zi/7777pnN8spTDcZ2q9cQTTyTCpN1ULUQO0aR8qS8y5X991m5Mhusb6px6W8nYKbVyuHLH+zNjzh6SkQKBfkEgCFa/9GQX2mFi5LsiGjvTCXPPIPuI8AdiMkKkqA4Okz0SlQ+kwWSZyRQznAm8V1eHWbGHSJjkJ9Z86Zjd2pU46FOejB+mwbe+9a1pRR/CkxNcKEwm22OPPTbVBdHi1I4UOQ8/5AzZYXbkNE+t4gz/pS99Ke15KMyBeFZIF7Xqe9/7XjqXVTOfezBg+ps6dWpyhOcon/tL0FPO7OqgTA8WnNyN90wGc53b+Yqg33///YngqX+kQCAQqC4CQbCq23ddrznTiKfqVVddNZlmul6BcSyQMzU/qUymvGYn9EymqFQICeKQfae8VsnMg8SY2KlEVCZkp10pK0NwQm74MVGRmAkpZ4iSRMXwGd8+qikfKeE+hJBAVu1hibAyJTHZOZAfflbCLghRwQGdQz2yuPXWW6f7kDoEyW4CFmPk+zw0KGfSpEmJvGm/frTwANFTXxsQM4X7fPPNN0993C5cyvkIWWEVJQwG+eGljEn8HwhUFQH7QdTmh6Gq1j/qHQi0HQG+PNSWMpliOhI2IZMpr8xVSIPJPhMqE3rVzToUJqoOwnLAAQe0xXR56aWXFsx2FkIgRsyk2fdpuA7UB0iWREFqJKI5Eky58iDgnnI/jHQOecrlCG2hXjmpg/zkI7/yuXxNO18tcjjhhBPSAgPhH5hEBykhvnvuuWcis4PU7mhrfyJA6Q4Fqz/7NlrVIAKc0E2izHuZUPEV8pmUCZVJu55MURh83m+J2Y2yZCGD+FXtWBnKD4r5kbrUSIwuhIrvUzOJk7r8h0sjnUOeqGLDJXXIqtpw59v9Gad7KxmZ35H2SIFAIFBtBIJg9VD/meylTj8p91CTu1oVZIlKkP2lMqmyYktyXjKxIk9UqXwwnY23E3qqXBf+II3MYRy8+UdRUhCksSSr/5AGOEZ6OQIU0ptvvjmZZ2NbqZfjE58EAlVEIAjWOPYa8wSnaM61nGj59DBDecLnx7PIIoskn6eRnrDHseqVKJoPTValkCmxjeBdThQMSkkmUl4pVUxCg5yMP752oqPzx7KfZNnk1iw2CNpYSVqzZVbler8Dgpjy8VtvvfUGVr1CwsPvrCqjNurZCAJBsBpBqQPXmPw58Vr55IeVapXj8PD/8Zn905CstdZaK5lXOlCNvsmSjw2CWlanYMh5uZyoUFafZUIlJECzpqhyfv38v5V5nMatwOOEvtxyy/Vzc8etbRzp7YZgQYG4XoOatt9++xSiY1DbH+3uPwTCyX0c+tTyfsvD8xYeVjstuuiiyXxCrWKyEvtHXB4ky8olK6HE8olUpICSVlplMkWZyk7o8OFcKGUndGQKkfLKR2csSkzKeID+GIeXXHJJIqo77bRTbNzd5r4XX8vWPRRTCwD4v0UKBAKB6iOQwrnUmlFzPYlVhN3qTooK0iRqMVMU08tIG+siYjZPFlTRiq6dd965Y8vDu9X+ZsthPhG7qEymxJ7ihJ7jEXml/pX9phAq730eaWwIiMt00UUXJdOVfQSN20hjR4D5GrmivO64444pltfYc40cAoFAoBcQCII1Dr3A/HfaaafN2EiWCXC0xJRoD7TLLrss/QBbvt2vCdHng0aRyj5TJiFqVSZT2s4J2+qusjI1SE7o3e5/RF+IBf5YzIZMOeErM7ZeYL4+77zzCnGvqNMTa0FdRwtbMbbS4u5AIBDoNgLmrPDB6iLq4uowuQjguMceeyT/qlkVLxgivwyxiSyb32ijjfpmJRa/KQQqEypL1E08mUwx5fFNY9YrkynbmFD0InUHARO/vSZF8r/pppsSwUUKgmS1hr8xLko8JVtAVD6WQa5awzLuCgR6GYEgWF3sHWoUcsXRmhLQaOKDZbsPmyvzy6riUnemURPL/2/vPqAtq+r7gZ/Ef5ZJXInGEmMwMhaKoEgTBgEZqgjC0GcowoAwIFKGohhaaKLSu5RBBlCkSC9DE0FABGQQgYgUBTXRGI0alwlrpfi/n1/cw+Hx2n3v3vtu+e21zrv33XPO3vt8z737fPf3V3YhU1797/M6oUKcOKEXnynmqE7mIhrvPRm04/gGynQulYjUDe7brFmzYkmXQcNiMtdrQsE9QICLyZIs9TlZmAyieW4i0L0IJMHq4L2h2DB9CYFvJvUCFYdaYLMIbrcXSl1xQkekbJJ3Mv9RpRAqr9Q5Tr3UKUQqndC7+84iupaMce+YDN3nrbfeOh3fx3nbOLQz9TMLWu7H+ooZwTpO8PKwRKAHEUiC1cGbxmEbyWiGXJXuIVmUrLKsR/l8ql9dE4fzQqS8mqX7rJj4vHI2n9ZIWEmZKhvCmE7oU30Hm2sfybKkCdWFosr5fYsttojM783VNFhHy4h/3XXXhWrLvMrkmsrVy78D0lWYZKXp+eW45H+9i0ASrA7eO0QDSRIV12xhmvnd7343pYMyJ3QOz0gUfymvFDlqlWsrGyf0YuYrZCqd0Ju94917vAnCRhttFKZqShaT14yGk7YldZI0vPy++a3LI2ZBaa4BojDlE0ufq5fj5D/fIwppEqxXYpOf9CYCSbA6eN+oNWZosjZzGH7ta187rtaRK/5KwrmZF6eq6LMHKv8RZIqqZlkZTueFSHlNJ/SpukOdaxdZmD59emRnl8/NYs6PP/54NXPmzFAqO9eT7m1JYArVSrJWgSp8rkQNM5FneSUCTz75ZCUnYJZEoF8QSILVwTvJ58giuiKxFi1aFMtijKd5yhVSQ/1aZpllxnNKW47xYKBeSHhaCFU6obcF6p6o1PfhXe96Vzi7W0dPzjZ5nTwkV1111YENTpCKBRZWaaDuMgdawLkXg1N64ouYnUwEuhSBJFgdvDHUniWXXDJI1m233RYO3u985ztH7YHIQ74JQro9uKZyPTeK24Ybbpgz8FHv2ODtpFhus802QbytW3jDDTfEhACpQMYHxRzGv5IKQ+VlPkc+JRI2KaL4ZUkEEoHBQiAJVofvtyUx+K9wDrYEyVZbbVUtu+yyw/aivqQOpWi99dYb9rhOfpjmjU6i3TttIRCrrLJKmLC/9a1vBcFasGBBmAuR8qWXXjqiRnvnisbfU79T6VOoeKJ85W2TfoEJNf2Jxo9jHpkI9BsCnAFyqZwO31WqlMVdb7rppvBjWmONNWK2i0RRiZgV+G/ImcWvRSg3hWAqzYMdhiib62EERJb+6Ec/Cl/D733ve5X0JHwHmcqYyE0y+qGIlHV9HNgpVlwAll9++XD4F+TBTzHL+BEQnbrHHnuEo/v4z8ojE4HuRIAYkQRriu5NMf2Z7UtrIEKvDMic2t0cAzYzAwI2lilxii4jm00ERkQAsXq+sXKBFQg4evvOU3dWXnnlSLRrQtGLReQskz2/SP5WfqcmPzKyy+uWqUcmdleTYE0MtzyrOxFIgjXF98VM3wD99NNPh2mBYjV//vzq8MMPj4V1DdaijjL0fYpvVDY/KQRkfWc6Q0gQrV//+teh3FK1RNcxkSNe3VxE8FKrKMrUKpMgOcGYPq3KQLGSniTLxBE48sgjY7UAptUsiUCvI5AEq8vuoGSEs2fPrrxmSQT6EQFEhSO47Wc/+1mYD6X7kL4EWVlqqaUiQpUqNJWFXxWl6tlnn40JEJUZqSqpVjjvMwd2OzGcSgybbRuBFTDx+te/vtlT8/hEoOsQSILVZbfEEhrbbbddEqwuuy/ZndYjUBLWUrT4GyJeTIrULulIllhiiTC3UYaQL76JxYTe6t5QkqlqCBV16oUXXohXfaRK2UTvMtMjgfoz1QSw1RhkfYlAItBaBBCsjCJsLaZ9XxtfMV+cLInAZBCQugFhsfHNslYlfy3kxnuKEbOi9Q5tohSRHFF5THMCP+Rke81rXhOETH3UJWpYIWKIk3ORNmTpP/7jP2KpKdnVJc1lnkfsJPG1XxqVsqmbmiatyrRp0yKHVZKqydzxPDcRGDwE0sm9xffcIH7HHXdU9913X9M1//KXv4wcQrvuumvT5/LTkv6hnf4LohvlOdJPvmE2SkP6njR9u/KEURCQWLeQLK8IEFKEKDHTIU3IU9mQ/vo2tGqEK+T6xsTAexsiVjbfX4RKItCyKoFXSlqWRCARSAQmgkAqWBNBbYxzDN7IjgG62RI35A9LzzR7rtD3diczLA8k6xD+4Ac/CJOOGf873vGOlxGunOk3e/fy+DoCVCnfKVspknhSnJjyqE8WPUfETGioT1QwxAsBQ7yUQqQQKOoWlQtpUr/fKFJFDePzMyjJUAue+ZoIJALtRyAVrPZjPO4Wut0Hi0rgYYZglcWemXI8/PjP2JAwJhXqlgckH5p8eI37K5AHJgKJQCKQCPQBAqGaN66j8dz8fR9cTu9fQrcTrOEQRrg4BpdNZBh1AdmiKlARpJsoKpfQ/DS9DIdkfpYIJAKJQCLQLwikibBf7uQUXgd1qjgr6wZSVaKxqFwIF9MOpeuuu+4KwkXVKgoXwtUvmb2n8DZk04lAzyMgT5qxYSrXW+15EPMCugqBjCLsqtvR+53hf1Uc4F0NJQu5qitc/GhksLfECJb/lre8JUgalYvalYlVe/97kFeQCDSLgPVZZ86cmQSrWeDy+K5FIAlW196a/ugY52Kh7jYF4RIZNpQH4KX5AABAAElEQVRwPfzww9W9994bx1hCBdmyOU8OpCyJQCLQ3whYMFukcpZEoF8QSILVL3eyR64D4WIWtClC7xGuYlakdlG4Fi1aVD3wwAMRfi98vk64RH5lSQQSgUQgEUgEuhmBJFjdfHcGoG9C6Pld2BSES94jhKtsZrWPPfZYmBUFZFiehN8X0sUcmUtrDMAXJS8xEUgEEoEeQyAJVo/dsH7vLsJlKRKbgnBJbFpXuPxvLbtvf/vbkfOIolUnXLJ9Z0kEEoFEIBFIBKYSgSRYU4l+tj0mAggXnyzbyiuvHMkkRSUWdcsrwmWhWFFIkk3y2SqEi8rFxJglEUgEEoFEIBHoJAJJsDqJdrY1aQRkjkeYbCuuuGIQqrJQbyFd1peziDCzIgVMxu6SSsLrRLLsT7rjWUEikAgkAonAQCGQBGugbnf/XSzCxSRoW2GFFWKpFEupiFIshItPl6V9JHKVp0verTrhoo5JF5ElEUgEOoOAZMQCXmylrLLKKq9Qm3/729/GShCU7CyJQK8hkASr1+5Y9ndUBCzVw+nd9t73vjcIl4WCkS0Ril5//vOfVy+88EL11FNPxdI/1nB817vetZh0yculniyJQCLQHgT8vuTBs5bkGmusEcRqhx12WJwD65FHHgkVGukSyJIlEehFBJJg9eJdyz6PGwEDOSd42/LLLx9O8WbFhXBRukpeLmZF6yqaVS+99NKLCReHe0pZlkQgEWgNAiY1fmsXX3xxdeONN1Ybbrhhtf7661c/+tGPqvnz58eqD36vq6++ev72WgN51jIFCORTYwpAzyanDgFrI3KCt7373e8OwvW73/3uZYTL8j42ZsXrr7++Yp4oCpdXhKtu2pi6q8mWE4HeRWD69OnVlVdeWV199dWR927hwoWRaFTSYSb7nXfeOYJbevcKs+eDjkASrEH/Bgz49SNcluZZZpllYpNnC+FiTqybFDnOMyvedNNNMaMWnVhI1xJLLBF+IgMOZV5+ItAUAgJVNt988+rxxx+PtCuCUvweqc6zZ8+uVl111YrSlSUR6FUEkmD16p3LfrcFATNnTvBLLbVUbBrhJzKUcIlc5ENyyy23BOGypA/CZZM0NR8Mbbk9WWmfIbDeeutVlCtqsWW0/vd//zeifDfddNPKxCVLItDLCCTB6uW7l33vCAJ//ud/vtgfS4MvvvjiYsKFePHhQrjuu+++6vbbb49ZuKWACuHy/jWveU1H+pqNJAK9hIDo30022SRMhE888URMVvhjrbTSSjlJ6aUbmX0dFoEkWMPCkh8mAiMj8Kd/+qcR2VSimxAuPltF5RKlaHmfBx98MJx1qWJm44Vwve1tbwuVbOQWck8iMDgIrLvuutXNN98cKhbfyFSvBufe9/uVJsHqkjssIaYHdHmVKqDbigzqFmFGFKZNm9Zt3Zuy/iBc8CiYyLVF1Sqky3uEi/Pu3XffHQtYc5QvhIt5UTLULInAICJAxUKqTEje//73RwLhNLEP4jeh/645CVaX3FPk5Stf+UpEp11yySXVIYcc0iU9e6kbyN93vvOdcPQ+6KCDKqavLK9E4NWvfnVFpbIpCJdkp4VweXW/Le1z7733ht+JZKcIF98vRM1MPksi0E8I8LGSk84m0ahgEr8Nn0vZ4Dfwpje9KZzen3/++RgLES3mdYEor3vd6yrm+sxR10/fiv6+lj9qXF4jcOr3/X2VXX51Mo9fdtlloXCsvfba4Ty9zTbbVB/5yEe6qucGQwssL1iwIBJ57r///osXZe6qjnZ5ZzxQRCVSLJGtQrg8dGz/8z//E4kXC+FiivRwyZII9AICJc+cHHPlO26C4bvNXC7tiQ1RKlGDPn/66afje29y4Znkd1A2kzubfHRy2olARMiY3gWV+D+zvffCt2Nw+ug7nQRriu+3CLXbbrstcsEccMABkZvp1ltvra699tpq3rx5lUzG3VT4Gz300EPVl770pYj22XfffWNw66Y+9lpfEC6KVnkYIVwWsPZA8rCygDUzSiFcUkTIVJ8lEegGBEwWnnvuuci87tV3F3miNlGgmNDLRo3yuf8pvUgR0uR4KlYhXogVQuW3YWJnn7HSZgyy+ax8Li8dolV+I1RgbWRJBKYKgSRYU4X8H9o1gFCEjjvuuMj78tGPfjT2GKDOPvvsWMrl5JNPrrrNH8ugxl+CSdOgtvfee1dveMMbphjN/mne9wLhKuqWVw8xZMtmv1l8SSVhXUUELEsi0CkE5ISTt0rkHx9DxIgfoRQnyL/xwKvvKfXVPsSKYjWZ4rtv4kH1F7nrd2K8tDE9+n3Yh3D5XVif1MbEmCUR6CQCSbA6ifYwbRmYkCszrUMPPTQGI4eZvVmY+JRTTglF61Of+tQwZ0/tR0jWN7/5zcjEbCCbO3dumrHadEs8VDxMCuGidNUJlxm+h1ghXGbxfFmyJAKtRIDJj9+gSaGgDWqU7x1TnaANE8E3v/nN8Vmnl5YyHvlN+I34fegr0qWfFGC/DQ701idF9LIkAu1GIAlWuxEepX6zrC9/+cvVd7/73XBoLyH/5RQPzW9961vVgoa/01ZbbVVtttlmZVfXvJLr5X665pprggh+7GMfy/QDHbg7HhgIVz1S0cOlzOA9bCgGhXB55aPiB58lEWgGAeT+ySefjGAM5j/KELVU5KsxS6CL/7vN/6msxmBtw2effTaIl98IUrjyyitXfF39JiarqDWDZR47WAgkwZqi+133uzrwwAPjBz9cVxzXzf5Y+mwgEwlnzT5S/Jw5czJB4HA3s42fUTwR9rrCxam4mBTdo5Kd3iLWCBelIR8ubbwpPV41Mxy1SuJcZJ7Jj++f745X/3dapZoopCYcFC0E8amnnop1R/1eJDPdYIMNgiz2yrVMFIM8r/MIJMHqPObhP0NiP/bYY6vtt9++Kn5XI3WFzH3OOeeEyZA/Fim+24oH+N2N/E7W6SPD77TTTjHT7bZ+Dkp/EC7kCuGicjGZSH5aFC6vzCTWX/TARLoQrnzIDMo3ZOTrREaMTzfeeGNMnow3yy+/fGzUql53HOezhWhJNyMVxD//8z/HmofycPEnzd/AyN+N3NMcAkmwmsOrJUd70B1zzDGh8hx22GFj+i15WH7ve98LfywPxG7MjwUYM96vf/3rsa7YBz7wgWqHHXZIhaQl35jJV2J9N4QL2aoTLrN4ZMvmwVnULa/8abrN7DN5JLKG0RBAOq6++upwHJf+YMUVV6ze97739SX5RiStfygi+plnnokJyFprrRWLT2eE7mjfktw3XgSSYI0XqRYd50EmvcFIflcjNVP8sS6++OJqyy237Ep/LH33EL/rrrvCrLDOOutU22233UiXlJ9PIQJyDCHExYeL0oX4MwUVwiWEXvBCIV2UDJ9l6T8E+CkxBfK1YkqmQtv4KDWT1LMEYzA98wHsBYJubOWjxc3h+9//fkw0rIW4+uqr5/qh/fdV7+gVJcHqINzFn8oM8eCDDw77fzPNF78tDuUSfK666qrNnN6xY5GsO+64o7rzzjsrAxVCmKW7EUC4fL+KSRHxQriYUxAuSpeHJd8bhMtG4eh1c1F335X29859v//++8N/UuAEUmFzbzmzj7fISYWgmVz5Dikc4CVLFrVHIeI+YFFn/5dy+eWXR46rjTbaKBzlH3nkkUj9gNRRwUXD6gc3CWlhKE6iY2fMmLE4aIP52zVIG8HxfrXVVgs3imZNfSYc/LPuueeecMeg3JkgipDMkghMBAEE61WNE49qlImcn+eMEwEzOw6j0i5svfXW1Yc+9KFxnvnSYR5wBpcf/vCH1Q033BADUDfmdqFyGKCZpQy4Xpk2s3QvAgYCDzKmEX427373u6vlllsuHpL8UjxkRF8hz7Jt393wt3NvPZA8/BQ+Xb2gWHTvXehszxChq666Ksz6iAkfpDXXXLNp1Uqvv/rVr0ZOPBnYERzjlDVLH3/88SDjHMwvuuiiCILh81fKhRdeGP5QovqQK/+X/G9SwFhqihJ2wQUXBEFDCI2j6kP2fW9PO+206mtf+1q4I1Cg+I9po9m8fL7/VFr1Sj0hTc4DDzwQrhyuJ7/b5a7l63gROProo6tci3C8aE3iOLlYmAZF2U1m+RtJ+yhCzzecM61X+OlPf3oSvWrfqQZF6hX/sYULF4aZwew1S+8ggDBRIUr6ED4rVK3ix+U9cuVB6B4zC3kgFoXLe6QsS/chgDwYPyiT6667bihCSATC0mxhXqTKm1Ttvvvucf9lX0dybr755shDZRxAjkYqzHTqMGGcNWtWKKP8U6lJCBffTqrVxhtvHGlhEENKGyLEh8rnxhu+qgKBpGDw/ZuISdtk4sMf/nCoYbfcckskfEY+pcnJ9UFHuoP5+UgIJMEaCZkWfc7EYkCg5Mh4blCYaCGdG7h22WWXyI9Fydp8880nWl1bzzMYUepcN/OAvk9EuWtrJ7PycSNgyRNKh01BuKSCqJMuhMsDj4lYoX5RL5Eu5/HvyTK1CMitR3FCiJnA+FpN5r6IyPMdMPFznyk9NsRtWmO5GtGp1KnRivxUJo1zGile1lhjjVBTqUlMgsyPTNFIUzEvXnrppaFiUalEYmvL96uoqcyDk0lB4tz3vOc9oehSdam1yCi8ENEsicB4EUiCNV6kJnCchxBfJD4CsrEbcCZbzMr4X5nZGSgNRN3qj4VMmg0iWfJkIVnyzmTpfQQQLiqBTfEg9KAs/lte/c9U5AFFwfBdLQqX3wKlM0vnEGDalX4B8aX6CGJoxtdquJ4ah/yuqet1MxrSVgjRWGSHuZLqhcwU1YmDPZM0hYwS6vumIGyOMXGlNm2xxRZhnkbsmRIpaVTXZn2whrs231eKmu+qyawgIylo0i9rOLTys+EQSII1HCot+IzflbW6zjvvvGrnnXeOkOcWVBtVMN8IKbYO2EknnRS+XQaDbiyFZMGDGcDAR+7P0l8IUBk8uG0Ksw9FYSjhEkHL9MNsJBUEwkXl8lBME0z7vhNURaZc/nVMXrCfiElwaA+RH/eawsNRvhAbnyHXCFEhXiZa9eL4Qqh8H/zvGIQMaUPABV8gX+Xcok4hcMUH1YoYiKOxBgEq/ln1tib6XhsUMgSSUz5fsjkNpQ1+WRKBsRBIgjUWQhPcL+SdlC2XjAGt1cUPfubMmSGtd7M/lus2M4WBgfLKK6+MwZPkn6V/EfDgRPoL8ffApXbUTYoULqkB+HEh4FSLYlKkrkzGnN6/yDZ/ZRRE5IrZiw8onFtV3F+kh4M5X9NiQuMPZfwTSYiMOIZJuZj8ECoE3H2mOiFUzvc9QdZ9V7hDOO75hvmQNUDxnUHAyjUY+0QwMnVS5RDIVke36tsqq6wSRNE1aZObRipZrfoW9W89GUXYhntLvr7sssti9n7AAQe05YdokPEAsg6YKBpl2WWXbcPVtKZKqpuB1ABpwC8Ra62pPWvpdgQ8YKkBHkoeqh6EHqDML1Qv3wdmxJ/85CcRkn/bbbfFq0zbHsq+P8VM1O3X2k39s1Yo8xZyxVG7EJNW9dF9QaZE9xmLEC6qJXMdQrXeeuuFOul+urfuuXOMAddee22oQ9R4bhQIlzGMEz73B8qR7wn1Tb+pYa5FSgZkCgk7++yzwxSJOCJ3iBhCRDVrhUJXx0n7rk/OLNdCKctAjjpC+b6OgCjCP2p80BjXRo7wqJ+Q78dGwA/cbJFjuyg/+VTaWUjoZnDMb/vtt1/M5NrZ3mTqJvMLsYaN3Di77rprhHVPps48tz8QoGBRfSlcNn45HtBUDZvfFafmYlKkdCFlWUZGQGZ2iot8UtLDtJpclZb5PyE6P/7xj8OURoVyPy0Dhvgw/SJT0jAYA5j35K9yD+X0Q/74aCJlJo4mqMjLQQcdFD5+0ttImUAV9Z3Ydttto25Rip/97GejzXoU5Mc//vFqRsMNAZFrR+H6ce6554bv61ZbbRXtt6OdrLO3EUDwk2C1+B56GMyfPz9mOjvuuGOLax++OqoQ/wAD15yGf0A3F5I/x9UrrrgiZqJCu8nvWRKBOgIe0Px6RiJc1r9kJveQLhsFJcv/IYDsnHnmmaH6MWchLO0qTP9UJ3mvEGOqDqXKYspIsQcNh3U+WUyJknq6V/JfIX9MekiVZKLqQYwE7lCzqJZy/z388MMxOaMicS+ghsvJ5niTzHqRi4tPX/H9qu9r1XuTWuO8MV6KiHaRuVb1N+vpPAJJsNqAucHG0guk5E75kCAtSJZBysDW7UV/hWAjhRStvfbaq6VBAN1+/dm/5hHgAI1wUTCKH5dXZiKTGt99SomHciFcVA2KyKAV5FRwjUSw1gRFOJho2120S2kUmUhtGs5Ex9zrOMRpaJ9YUhBnxEgd9fPd/+K/NfS8dl/XcPW7zi9+8YuRluSTn/xkJOYdxO/acNjkZ/+HQBKs/CZMGQIGTERUBJCH5j777BOmginrUDbcUwgg6UgVkuX7QzmpEy6kSxRaIVxemcj45/R7kY7BklrWA+WrlH5C7bnjvm8nnHBCfK+ohNS1LIlAQSAJVkEiX6cEATNZJgN+Ivxv5s2bF06tU9KZbLSnEeDbg3ANVbg4TiNblC4mdOpWIV0c7rtBDWkl8BThU089NRJvzp49e3FUXyvbyLpeQkAU7HHHHRcJT+X4S1PhS9gM+rskWIP+DeiC60eyDFKS+PGlsBB2L5g5uwC67MIoCCBcfH0QLlvJx8WUjmwhXh6GnOYRLhvCNdnEm6N0qSO7LMklc7oM51IX1M1sHenAkEbcB6WV5jN1xsOr4ds11UVfOPgL2hExXpaWmup+ZftTj4DvaKZpmPr7MNA9YLIRDUZel4RSWPnyyy+fkTkD/a2Y/MUb3PgB+W5JA0G5QqY8AKc1UkNYWkXaCH5dCL7IX6kDKKrUVMoWAtZLChdn8Ouuuy78GZkHXf9YRcqDs846K9Q/C30Xx3DO45zkEQifDzWtcqI///zzw0FdwmNmSVgP9TvlpySlgVxYrchPhShb4LmMGSNdHwd4ymW776HvGXxENFJIfa96naSPhGl+3hwCudhzc3jl0W1CwIBkWQ1h3QsWLAgTB8fRsgxLm5rNagcIAQ9ChMpWIuo4VBeFq6hcXi0uLO2J76Vji8KFqLWCJLQLdvmZ9Nmi8h724ymOQ6b4sC233HKLsZH81WRHNN9w6hMSKiM/4sq3TVTgcIRO5CACMn369JZk6qdK3t0gc+orS/EMd50WakYKS6LT4Y5p1WcCmkQ2wh9e48W+Ve1nPd2LQPtDS7r32rNnXYSAwVlYtxmzTMmnn356deCBB0Y4dhd1M7vSRwhw/rZRtBQmagSLGbEQLo7MiAZliJpFASuEywSgW5Kf6rNkn3JKNWNipwT53SEt0qcglCKhmRkRSpGZHOYtEu36P/CBDwSZCMAaf0T+iaiThoG5n2pEzZGDi2olkEVKBUVUo7VZqUsImcSn1GokTNuwNg5Yv1TbpRSF0X79ZeJVBDqo7xvf+EbcOwqltQktQK0PfPIQau1I80ChpFgioBanLv2TcgHJFHVq7UH4NatcyvclmaprQ7iGI5vlevJ1cBBIgjU497rrr9SgJDeOgVMmfL4NEhFmdE7X37q+6CBzEhOPTUG4+GohWzYPeBuycdNNN4VCgmQhXDKOO08dU1GY16l0yEEzCopzkCYkgx/R6quvHilUmBs32mijWE9VfiokCYHi44V0yUFWipQrCIqkyuqRVJQ/G1UM4VhjjTVinUFpWZgW4cQUi5jtscceYaIV6EIpQ670qRRK2Re+8IXq+cZyOc5znbL7K9/+9rcjQEZfjBHa1TeKmbGkEGgEmTLuf/fLuoWimCUslcuKKiZfF4JK9ZKbD/lqprhe5BaxtDxajlnNoNe/xybBavO9NbOTudwMau+99x5V1tYVg46Znh+omdCgFSYYMjsly4BscJXCIZNIDto3YeqvF1myeWArfpsI11CFy4P+1ltvjWMcWwgXtctDvROF4sRUNxEna6Y2BIpShBS5HgoOkyHygfQgT1Sm448/PghY3TwHF8dRjJhXmQ052VOLkDYTJjmsqFLInD5Kz6IdhFXmd+fvvPPOoTZRkkpB3NQhYzq/MiSKKqYgYkxzJmUIlWzvkp3K+zWtoUraj/Scc845YTqd00jC7N7IGE/1chxC5J5JZ4EIupbih1b6MN7X9ddfP9ryHUmCNV7U+vu4JFhtvr8GGbMkzqQGlvrANFzTJHYRdX6sg0iwYMLsYvBDsiwObUC0/MVQB9rh8MvPEoF2IeB7iSQU8xXSwFxVzIolUtFSKtYHRSwcWwgX81sz6tJ4r0MfKEOiBifyYJcvzKQGOaJGIT6UHuOVa2Juo9i5XuOYV9c2tDgXFsxlVBzHWHcSYaEMIZvWEnQMFaosqaMeylshX/V6ESAKlf7B0RI4FCiFuRDZ5U5QEjzrs/ZM1JBExEu/KHNMg0gokyiCRcWShd21SbWgr8ikcyZSkFCqp3shQ306u08Exf46JwlWG++nH72FUA0mfrjkcyYvP2A/bvI5adyMx4/T4MEXwgDiHDK1mRglx6BtcEa81GWQ4qtkvxmdnDfFebeNl9Sxqj3MDIoGaT4gopGYE/hUZEkEugEBD3GToDIRQjxMkDz0bciJTZQd8sLE5ljmRGTBQxi5mWxhzkMmjBcTfaivueaaEUnJj4j5jo8SAsO0hqBQd6jI1hAcqTDxmRRRjsp71+wzdSBq6txkk01ClbKGYSlwGK7v6rKVUurzP0yZLylY1DaEbaj6pB+IXT0KUnADk6BjjbnInbGYYz9rA1+uiYwzzkHS3A9k17VmGWwEkmC18f6TvREmsy/Ok5/4xCfCodNgRRr//Oc/H7I6R08ROT7zY0fADDgGE75IVBx1GCzI3ciHgVqYtEHVj7lZp8w2XnbLqmaegZUBmpMxZW+33XabMj+Xll1YVtSXCCBcfo82xQOfD9FQwsUFQMQZQsZ3BzlAujzYJ0K4PNCdVzetNQswsx7VippD5UEA/e6Y6IxPovGYEE0MObYPV5xPQUOcrC8q6SnFS10Ilknj5ptvHpPEM844I9SeUledRNXrpjpRvShZxjwkyORSQVyRJ3W6/osuuiiULHWqj7nPNVDTYM753ZhCoZvWmJgiXcZX5kERzAietpg6J1qYJE14kbgkWBNFsX/OS4LVpnvpR242izjNnTs3iJMBSPiwwYezptmXXDMGNwNHiQJiVjAocNhELNZaa61qzz33jPpOPPHEULg4YiJgiJf6DdT9WAygZteULMoe3w3LUgw32+3H689r6l0ETJQQjmK2o2gPR7g8+DnOeyg7FtkqKpcxYKyCuPid1B3Pxzpn6H7Eg1lepJ22ERBtIwzGKX5Q2jCuUY5Kv4rC5JXCLps5Zd1k0qTPGAgHah0FjCImBYbJIiwQTbiUeob2i0sFZZ6C7TyECXFVKFec7pn3TDqNEcgTBc4YSo26/vrrwySI9B1xxBHhZoCg7bvvvmECdT0nnXRS4M6SoM7J+HtSsDjVI3dZEoEkWG36Dpid+rGbZRkY+GSYzfnhcXY3ozPj5aRpACqOpN7bDGZmi2aBBi2+BWZpZoPqVQxyZl8+6+cCCzgZXBFU5MqM0yCdJRHoFQR8b6lDNsUEiY9mXeGiYhsn/MYpKY4thMvrcCQKYUDMJmLWqmNnLDEJNFmjFhmHdt1115jsGbeQFr9B7yntiI9xicJV/Kc4y+szh3ivfruOoerJbUcRg4OIQNeNzCB3iI62hxZjHrLGiV+7zkOkuFTYXDezJZOfuoyX+lYUOdeB9KiHAlfaofo7h28nrJG9Egk4mckqjPjEGf+zJAJJsNr0HWAevOOOO2Jw8mM2Q+OkLWO0iEKDoYHCD95m8OAcWfyoHM9HwKzQoKY43g+3mCBI3MMNuG26pCmtFg4f/OAHAwN+IgZpkUpZEoFeRcDvGykoiokJVZ1wIVt8uJAGJjJqEDNgIVxMi8xQzvFgp+JMptTNm6UeyhPiY4zSX+OSfhp7RprgfOhDHwqVyW/UOaUYBylilC2b8UxRl3pHKq7TuGgcRPocXwondQqYtnzuvVcbsqeP3iNTrAKKia3PFGZZ1+c8RE+/JlPcj5ITbDL15Ln9gcDkvk39gUHLr8JAINyZLH3QQQeFyqQRM62SbI+Zy3HCu/kZ8QUwkJqtGcxEoyAV1CnqF1MgCdssjM/BIBakdN111w3ckFeDN9+QLIlAPyDg4Y4I2CgwCAjy5HdP7UG4jCteKeM+c6z0BNQcJKMdZWi9ddI0XHuFQA23r04CmyEzSNFwBVGq11nva72fCBw1bbii7pHqH+740T4zZpsEF/I42rG5r/8RSILVhntMjeJTpZDdiw+G2RcpnS8RMyGycOyxxy6eae20004xiyJRX3HFFTGzMkOz9hZp3WzMAOI8bYw262vDZXVFlUjWeuutFyQL8TTAinjKkgj0GwK+2xQRG7OXhzZ1pE64KFzMZ8aCQRwPuu2eG6OLxaHb+pb96TwCSbDagDkSJCmeWWjxt9CM2Q3fIYoV+Xq//fYL3yJkiRRPPjcbk1iTUylTgHOYFi2Y6tVn/BAoXCeffHIMvG24hK6ukj+FdBUeOEXJknsnSyLQzwggXMYAG78iD3KEi1O1934PzahCE8EKudMW/8+6WjSRutpxDgyQnKkim/zq3IOpar8dmGadE0cgCdbEsRvxTNI0095Q53M/PL4Exc+KGuM9n4a6RE3u5zhafqjW0kKo1FuOQzIoWYNaDPCW8jDYc3w3qMqvkyURGBQEfOf9DpgJjSH8iNpJsATmSIUgUaff3lgEywRwWiMakQpvvOpEOeuss6JNY2On2qxfl8AEk+R23od6e/m+uxFIgjXF98cPceiP0eyn7j9g5oqMZXk5Ah4uHGqRLPl74Gjgz5IIDBICAl2kLpDmgaN2u4roRg7hlPky0RutLeSKe8TQ8W20cya7T6ob44HULlNR+MdRGMcin1PRt2yz8wgkweo85tliCxEwmCFZpHnrlBnM+WhlSQQGBQEkhsM7h/jJJBsdCS8pF5jipVvg76gdua6mT58eKQns53wvwaaJ4A477BDuDtJHIGIID6d8Of0kRVWPxMvMnHJW+d2W9VctwEzB568qh6B2+ZlxnxDQwrWiXpgsrfQgr6A1BZ9vLApdliPTLylyrKYhQlKbogbbSfi0KSp0PAS0fh35vj8RyERC/XlfB+qqOAHLIyaBq6z3BuYsicCgIIBYSAsj/1I7CvKG6FDJkAc5owSY8AtFXizILpcU05jgHoSpLBptCRqk4+yzz44IaAE80tRYNkdEtETL999/f5AjCVMdV86RRNTESS4rgUF+166zXhzz1a9+NUykUlkgeUylfNNOOeWUSGTKD5ZP66mnnhoEr35+q98jjPrbTiWx1X3O+tqHQCpY7cM2a+4gAgb+TTfdNAbkr3zlKzFLnSozQQcvO5tKBMKPk4mc0tOOwnGcDyiyo9T/R7qoTfwf/d7OO++8SDeD7DFZCuCRRoJyteOOO4bfqIWWKU+yxiM+1lEVbU3FOvroo4N4IUXIm+AVm1xYcn3VncfVrw75tbbbbrtYQsc5FDMpckRXWlqLD5go7KOOOirIG9Nl3QWjlZhR0ijogpOyJAJJsPI70BcIGHiZSgQEmMEyYfBdY8bIkgj0MwL8opik5NGj3LTbXxPBkquvFO2Lbmb6Q14oXn6DpVgKiL+koB8kCRnTzwWNZXNMjCQAZfrTb8oPoijvH0UacUTQ1O/8um8TpQuRsyg8AqZfIqyRJ2RN3sELL7wwFDUE0Wd8pPStHQQL/q5d4FIqWOXuD/ZrEqw+v/9mc4qIo34vrpE8P3PmzBhERTwhWWa4WRKBfkUAuUJArATBbOd9qwtCVUgVE2F9KRjt+50pXuvH+gxx8tssYxFyhYwgOeV4x/ncMfzIJAW1UoN0N1Qp6x9yBWBiLHkFnV/qNMHSLvKEaPlfdCX1SwocnzFBIm11kqbdVhXrSTLX6l/Bo1V1Zz29iUD/P3UneF8MIJwyKSJDt7LQ8gSr7thpZPgFjVni5Zdf3rE2p7ohA7lBjjOu1/nz58ci2lPdr2w/EWgnAiYR1BmmuFYX6Q6kgWDOQ4woSl7rpW66q3/u/QorrBDk6bHHHgtVyaoVCBMndw7zIv+kN2DW48dF5WLSs8oFZct6iJQpihQlqhSKGTJjwWgRjny0kEykC6lSkDJLbFGUtFPyVJU6WvnKT42DPmKXJRGAQCpYI3wPzHgMVqJfDj300JcdVWZkL/uwC/9BEg1U7TYZdNulmz0yVYhIMpifc845kdS1RBd1W3+zP4nAZBGQ6Z3yQ+1ZeeWVQ+mZbJ3lfCRH9J2JGhJhbCxqFmI1Grmyj/lOFODFF19cXXXVVXG+RZYRH6oPpfn666+PtRYlEEac+G65FqQJYTFZ5E9VJy9ULuZGk0iO86ID+WVRqFZbbbVQvy699NKIMuQc7zPnj9bfcs3Nvi5atCic/xGsQRtvm8VqkI7/o8bFNn4rL9nTB+niR7tWP9QLLrigEqUyNCrND9QsicJlRmRmR36WgG/u3LkhfYsmYf83q/S5EGPmK34ABhkzLoMiCZsPguNE4xjIkCKhzmaN2jfYGKQUjtxmZWaABjszOv4KyIR8OPwXnKNPZp6ieczmkET18k3SV58JWzbw9WuBn/sADwP0vHnzFuPYr9ec1zW4CNx+++0Rbbf11ltXM2bMaBkQng/GE1F/3pdUEPJhGZuY9vhhGW9EDDIhUpwkJkU27GO6dL7xiupksmMc45/FMZwvFfKDoFCeFVGBzimm/6IO+b8UqSCQG/UzH1LAEDSk0DhHNTMGFl8vdbfDRHjEEUdEvawbUkJkSQTwhCRYI3wPEKzzzz8/omLOOOOMxUeZJZGwDQ4WcjYIiFJxvFDlY445JgjTgQceGGHNyJUBxOCwxx57BNGhLCFVHv6ImnaoZZJkGnysVyiyBkHjNIl0maGZhclUbNA64IADok7RKtrdYostYhFoBMo6hkgXskUWR9Z23nnn6tOf/nTUYSZn8NO2UOb6cj6LL7RP3iDAiKXZMzPEpz71qcCzTy4vLyMRWIwAc5vfM6LjN9/qB73fkocGhXgiKpAJjzHHGFonSfym1I341J3PHWus1JZIxfo5iy+68Ua96nD+0BxX6hXpWOqeSL/rbQ333tgsBQRVTlBN/RqGOz4/GwwEfNfSRDjKvTZbM/uRq6UUDp2IEELjx2t2ZuFmszazKH4EBgKkhwKGHD344IOxqcPMjaOl2Zb8LV/+8pfjXIMJ6X2ttdaq9txzz5jRCTNG7pAuJAi5MpC4cUidPpilIXmkdpI7/wiOocgcid3M0yCFaFHPTjrppPCJ0L/jjz8++ktF69disOP0K0ScKeGEE06o/v7v/z78P/r1mvO6BhMBkXpSBFBsjQnGjZFIyUQQmixxGEp+Sh+QH9vQou/jicZT70h16/Nk+z20X/X/kTuTWuO6sb6dbdXbzfe9gUASrFHuEyJjFnjIIYcsPsrszcClGBSY2ITlkqodyxRFjULELOrsGGTID9AszA/w9NNPD1md6mV2hTQp1CjkjbyNlDme2mSgWXvttasvfvGLQa7UwaR48MEHBzkjr2sPyUOo+Crok/P0D8FikmRCRMIcy0RIkifp93txD+Bvoe0FDZJllk/JYsbIkgj0EwImbyZmEn4ylQ1dD7WfrrUbruWGG24I68UGG2zwMv+wbuhb9mHqEXjJmD31fem6HiBYzHFUpbIhTciLYj+bfyklNNfyLUUOp4Ix7TFTIV4Uq2kNB+y99tor/LLKuV6dbxZKyeLXgBipRzv2Ucz4MIiaue+++yI5H7WLU2s5H6lyvuKVj4TZnT45X12KetWPzA1CQbKYaZlK3ZPTTjvtFZFQg4BDXmN/I2CSttVWW8X4IQrPRKzfi98zC4DXTpbHH388Vo7gaM9HdiQVrZN9yra6C4EkWKPcDz9YJIQqVN8QJQRFKYSlVEN1Wn755eNfyztQtkSyLFy4MPyphDdLIcDPqmReHjowIANMj7/61a+qW265JYiA9bYQJP1h6kPs1EOJokKpg++F/++88844RwQkYkdmN5Ollt12220x+DIfInFmvINS3Bu+b8yFsGD6ZQLOkgj0EwLGDutzcv6+++67Y5LVT9c39FoE+3CfoNJ3qrAaaFOgEr+r8ZgyO9W3bKd7EEgT4Sj3wqwImaJ61AsT4Wc/+9kgV0MJFgWJKmTph2OPPTb8sDzY58yZE6SJenX44YeHuc6MhzLF9Geph1JXUVtEHlp6wobQ+RyJQhKENX/sYx8LYiVcGWHiTM8cefLJJ4eZACFjFtQGcxhz45FHHhnRjJQtfeQLNkiFeRSpdG8tqSOFw7777rs4MmqQsMhr7U8EjEEUdzmhECy/fdnO+7WYtIo27OQi71JLwNkk1xhaxu5+xTiva2IIsBc1xI/OSqsT62pnz2JeM0BZjmFo8ZAWHUg5oiQxGfKjEnKMzPifwzsFiZ+V/4U0I1pIkOMQJWkbqFTqk4zPPlKzfaR9a3YJL6Za+R9xIvs73uzUZ+pAoiTh0wayxQeDOsYnTEg1s6NZ7fONlea1IZoOCaS0DYqJcOg9RDD5uVkcGgYCFeCYJRHoFwREIHPANhbstNNO4YfY7LVZ1Nm4YXwxbhlTKMACR7g7GPeMgyZ9xkRqknEL4bAAOyXNws5KiZI2dnFxsM/4KdhHOgVERfQ0v1F+phQpKW2Y4uwTGWl8RGxYB/TNJNV4ZgL6yU9+MvonXxcfNPs233zzin+UY/hLqZc1wuR0ov5pIpLVDwfE1bieJREYioDfQBKsoai08H8kzQ+//gNEZg1KiJgBoEQP+uGX4hiD2mGHHRakiepl0OLLZVAr5zFzIVuKtgw8Nm1qwz7/l6JeqpbNPn0Y5IJkibq8+uqrwyGYP1smCRzkb0T/Xbso45KiRJBHyac33isVkMPFQZCIzOv3339/BNzIrk6hl4+PmUzUsskbxczEzRjlf3kBn3322XgvtYyM8yJ5fTanoer77SFuJpjGPOOV9DfGPGq7z+yTVsZ4hUQhjiUdhd8rn1QqHasCMofkIXvGVsRNyhwTVdHDiJYUNupxPc0W5I0LBouDwKO6D26zdeXx/Y0AguUJe1Sj9PeVTtHVGSwMNPUCdJ8V4hM3YQjRKccgXZQwEjgFyqBGsVIcY79Xm/q8Kt6XffHBH/7Yb5Biaizt1/cP2nsYMfdS/RAtWHuQ+DxLItAPCCAgogm5EEghY/xoJu+dJMvGH+sCMoeZyFH1kSoqjnHExGRagxAhcszvkm0iH1LHIDTSFyBBXilR8v5RwIxFFnOWGFX9SJLkzRR/vpGULUSGqmUfP1Q+ppRnkyPjITcH5kFkyj4T0HXXXbea0yBva665ZhA+k03qND9YDunOg8nQsXms+61uqpn+luV3xjon9w8uAkcffXTmwerW2y8aiMRuxsdEyMxX0kN0a597sV+cUwUcGKCZEMzWDcBIaJZEoB8QkBiZH6lloyQvRmZEHo9Xwab0IFTIkQmIjPElOlE9SBUShvQwFSI66nYeouTV2CXgBiEznqmHadF55557bpjqfc6tQmAQ8yD1jY8k1ajsU5/EnsZFapw+6YPzTJD0gUKFQOkDsiZ1juhrahPfNOeN99rdfwQNedQuv9gkV/3wq+jMNbxcXulMmz3bSjHDFaWonReiDSTLlqW9CFCwDLxIlhm1meouu+ySKl97Yc/aO4iAJWL4YVGFLIBuyS1O4c2OL3Lt8Sstfrt+OyYjJoBIi99QKdQrK14gQQgRpYlpEOGjeCFLTHebbbZZ+F0ZX5EqEx6Kl32SKSNE9iFjVCmqmnZKW0iV/VLRIHDlc/3QB35jJlIUK6/NkCv9gRcfNGqavmXEYLnD+ToWAi856Ix1ZJ/u52ROsbDxTRqpsPuLNmPTH08x4+KQvt9++416OEd6bQ/nTO9EA5kZGGmaz9V4i/P0mY+E8zh2kvINcFleiYAHBbMGE4Is92bNWRKBfkJAMAdzm7QCnN+Z6hCHsQpixAcKIWIWRDAQJ6VMNhEmRIZZUOQ1BcqYQ0kSaOO3pS3qF/MgkkXZcj5lieqE+PDxkj7GMYp9yBniZB9yRzGzzJh0NcZNTvOWCaJWUcqQM2qWfuiD4J+JBLAYByQkpqghp8hdkqu4LflnnAgMtILFGdzgwbZvBuYHJZHocAVhst8sZjzFYGFAGys8uqgnIgeHK2ZjBreyxE1ZaHW4Y+ufmdEZXKyRRY5Xv9lXOnHXUXr5e7N5ywzBTr4wM97x3u+X15T/JQLdiQACMnPmzCBI1FrjA+d3julIzHCFeY1jOqWKuYy5kT9VIVfOETTDpQFpE6Fn3OLrxWSIlKjf2IWYITzGI0Rp/fXXD/PgtddeG2ZAYxSiRr2yTyoVjvDGXwSHGib6kM+ktVX5S5oY81FFxqhhzKCInr4ag0UlOqbe3+Gus3zmWM8EkYquE14IX7oNFITydbwIDDTBIi2LOJHh24/TD6oQLA9ZsyMDBlncTKxE5/lxG5wMIOzywn39+Kke1CJr+/mhS0anDjK1QcIP3v9kZ7Myi4M63kyMXK8dfhLqF3lITUHQTjzxxBgwPv/5z4cDqbXG+ERwXDWzUocFnvk0GAjKAIqUmfV5FeJs1mfW6Jq0p8/aNKs0A5w1a1YQC46mBhlmM/WX2ep4v1S9fBySxUnWAwIuSJbM2FkSgV5HQBQyBZviI9rOe+OI9C8UJmPWcA7wSJKxggpkeS1kyXuReMZNpjkF8WGKFPln/FK3DbFBsg499NBQp3yGzCFZogzVTd0yziBDSBEyY7WLonyVdilffptHHXXU4oTLSJffLRWNE78xjoKmTQTJ/8ZuZNI4PloR+cjfClbbbrtt5A5EDJt1iB+tjdw3OAgMNMHyI6JUIBGkZzmRpEagKiEexx13XPzwSerSJDC5+aEamPwIPYj9uBEeGdcdh0QJbUagmP8QHDmWmPj8eEW9GEiQMcTMYHN3I7TZQxwB4iPhPfVJglEDBqfREoVjNqk9A6H2yemcRJkEkTHOnjIMH3PMMYsjbrThPNcg2SiSh1wa2MjfZo9CofXVYGuQ0zcEQ/0GxvHO/vrhp0PlQ0CRbATc4CqfTpZEoJcQ8NsthAqpYjIzkeKgztxHIaI2OU7qAfmm+DwZu4yBpSBQxhZkxW+h+DAVM145DukyQZUiwTFIUn3coFwNLcgUVc0k0fHqL+eMts+kWH2Or5+j31Qw6pjP69HU+jVSkStM8mZjpPEWuTImpklwJMTy8/EgMLAECxFi8kOkDCoGnLPPPjt8DAw8/qcknXHGGfFDM7iQpBXqjjJv3rwYFPhlmVXtv//+MXOa0wgRNoPSRnEI9bBGdPbZZ58ganwEDGhmVwY4BAjB0i6Tnj585zvfCamckoR4IVQGIsV+MzyDCNLEh8EAhzRSoBAuAw2ljdnLwGqfmR4CxT/MtVO9DMIii5BAgx1CpV6zUDNdvlsk+0EqZtey4ruvwrs9MDgGZ0kEuh0B31nqNtUccfIb52tqjDEu2O/7bBJBIVKMOSZ6lo9CMPhqcS73OfMbBamez28kDChTzZISY41tuDLSPiSMejZccW3j7QPrgomkCa/JsuShiJUJbKZrGQ7d/KwZBIb/VjdTQ48eS8FBRBAaiej8j4SYxRh0kBsDCiLDv4Daw09LMYggHKRzZkAzLaqUXC0ULj9wg1m9qMvAZbAyU0NkEKtSDAja0CfSu+MQI+0wKaoTOULaPPxlJ9ae9rUp6Z/6XIdjDKJmc+U8A4niXEqbwVc0DnJFdied83cwy+Msqk4DjYg6TvaDRrAKVrJPw5L5GJYUyCyJQDcjgHww1VFhTOB8d5EnY4Pvsv1+537fxgj/U6OYwpj/OLIfddRR8ZlJhnFovL6f3YxLvW/GzbvuuiuIlYkp8yjlDl7jIZL1uvJ9IjASAgNJsMzikAYEg4Mn4oNQIEkGIsqO2VEhKsCz3wClGJDqmdDNsoqkbp9NG/WClDlHsd/D2mBXL2aJshcz2xnkOFr6wSNW9eJcZiyqGIJk9lV8qqhg1jYcqegrQsUEKO8TNW7GjBlBvAw0rlnxOcKpbWRwUAtSzbcEHsgv/JDbLIlAtyJgfDGRspmo+b2bpHEBMC6V7zATm2NLMYmielPaKeIUfqo+smZiwfxX/K3KOb32Kms8pZ6CjzRyzGdOLONsHY9eu7bsb/chMJAEi5kNuUJ6LMtgIEJ2+CZx9DYQMaPZzzTH2RwZKeTDbZzID7F+zlACxnzHHMfPixnRwEhFMzAiQ8gUc2O9IH38KZBFPkKUND5D6rbp/3DnIXJma8cff3yQSyZBRIJJgIKHpCFWBlifwWeQi4eKB4z7b200D6gZDVKaJRHodgRM/CjSzPyUGRM35i+//+FUKd/tEsVHzZJU89FHH43vPYUb8TKZMyktE8Zux4B5VDASYsUPbVrDGV7QD9UOeTTWGSuzJAKtRmAgCRYlilM6UyAzWyE+SJZBhaTONCgakOmNIkTBmKyZrLQz9Cb63GClL2aMyJ/BkKJmgEOSmBX5gPHzKoWPANMeR3hmTgqU81zHggULwrdM3Rz3LV9R2qd+mbVp02BjAKaKcWQVjcgPAalSPwKag08VPih8sJAskZ7wKv4r5X7kayLQjQhQoI1lJm8UHN9bEydkaqTit49oOZfSZULBr4u/6RFHHBFKFt9Pqhb/1PH6PI3UXqs/N/E0QUUoEURjN38yipXJq2sz/pUxsdXtZ32JAAToww2x4+XmrH6HBlkyWJi5IBel+JzJDUGhGnFEN6Dwp3KcAQkhcZywYj5Y3psVIUD2yddSnNc9jPl4Gcyeb4QuMzuaMfmcE7z6DGCWkDBIuQ9UI3VTmdRHrteGOvVDm/Ji+RxR0p5rUR9SpD4mToOHGZqoQsdQ5PRBO66bGuY8ypW6FMSzJBU08JDNDa7F/FlwGtRX3wv3hqoJJwliS1qPQcUkr7t3EKDgmGxZpWC33XZr2tfImEEt58JA7TduiXY2bhknRPYVp3jjTydLSYljnESoKP+UOv0y9jGTUuxMWkcjlp3sc7bV3wh4hg4kwRrvbTVwMMPZRopYGW9d4z2OWsWEaQZpK0Vf7BtucLAPCaOq2BABm2NHO6/UXX91HgKoUMNyhldHpwpcEW9Kn4fMHnvsEVGcLz8q/0sEug8Bkz2TA8qTbTKFSwOyxfwmHY1JpgmciEXjJUJjgkZhpxiVQKD6mDaR9k0ypVTQpkmlyaZJsX5QqbSlTRNiBAuhsk223Yn0Nc8ZbASSYA32/c+rnyACiK7BnanQQ0WeMwvOZkkEuhkB31vkhILdSr9KCrko5bJRuCi9CB1THdMkhckkkGKO8PBrpMAzLVK7ECDKu/9NDE3y1Es1E2yDQCF0Jp/6T+GnSFHspVdg8lOn69KGuk02syQCU4VAEqypQj7b7XkEPKz4s0hjYRFaa04Ke8+SCEwFAr6LgnMQfSaxkQqFOgb+hvmiXQWRojQhR165HhSyhIRRv8o+RMrxfk/MeggScoRkIV3IF9KFVPncxppQNvu4MPg/fUXbdUez3okgkARrIqjlOYnAHxBgCuGDYuFcM3WBBoIksiQCnUSAM7fgGCYymdlF+HVjKe4HCJXN7wex8jlXBuoUYkV5QpZs/i9ka2im9268xuxTIlAQSIJVkMjXRGCCCHhQWEvyoosuChPHIYccEo61E6wuT0sEmkLAElqXXnppmMi23nrr+O7xncySCCQCU4tAEqypxT9b7xMEkCxRhfPnzw+TiEgtDr5ZEoF2IiBvnrx1IoulEOFITu3JkggkAlOPQBKsqb8H2YM+QYAvicW85Uxj8pCzbFojzUaWRKDVCPBpkvCWz5Wkn1YWkAMvfZBajXTWlwhMHAEEK9PXThy/PDMRWIwA/xBO7nIMedCddtppkUdt8QH5JhFoEQKLFi2KKFbJQyXOFFGX5KpF4GY1iUALEcg8WC0EM6tKBDjqegDyixH5dMABB4R/TCKTCLQKAekMROJRrTIJcKtQzXoSgdYikCbC1uKZtSUCgQCSZe0zebKoC1I4DLfuW8KVCCQCiUAi0J8IpImwP+9rXtUUIyCKy6K4s2fPjuSI5513XiRKnOJuZfOJQCKQCCQCHUQgfbA6CHY2NTgISJBoOZLtttsuEihecMEF1W9/+9vBASCvNBFIBBKBAUcgCdaAfwHy8tuHAJK1+uqrV/ITWVJHhKHM1lkSgbEQ8D2x3p5lYrIkAolAbyKQBKs371v2ukcQsITHBz7wgWrLLbesvv/970fW97KYdo9cQnazwwhYL/CMM86omJYtH5MlEUgEehOBJFi9ed+y1z2EAJK15pprVptvvnnkyrJ+oSVCsiQCQxF49tlnq8985jOV1/XXX79acsklhx6S/ycCiUCPIJBpf3vkRmU3exsBi9J+8IMfjCSkN954YyVv1o477tjbF5W9bykCjz76aKwpyLS8++67R4Z277MkAolAbyKQBKs371v2ugcRQLLWWWedUK9uueWWWNZk1qxZPXgl2eVWI/CNb3wjzMdvfetbq2233bZaaqmlgoS3up2sLxFIBDqHQBKszmGdLSUCkRjS8iaW07n11lurV73qVdU222yTyAwwArfddlt17bXXRmoP2dn/5m/+JtcUHODvQ156/yCQmdz7517mlfQQAjJx33777bFtvPHG1RZbbNFDvc+uthKBp59+OqJL+Vu97nWvqyQozJIIJAK9jYDfcSpYvX0Ps/c9ioBldDbaaKMwFy5cuDAUC+pFlsFD4O1vf3uQqv/3/3I4Hry7n1fczwjkL7qf725eW1cjgGRRr5gLb7jhhjAXWrw3yysRsP6eXGJyQ0ld8POf/7z6xS9+Uf3bv/1b9e///u/V7373u+o///M/Kykw4Kkwvwom4Chuzb7Xvva1sX7fG9/4xurNb35z9bd/+7fV2972tojUs2+qyp/8yZ9MVdOTavf3v/99ZYs111J1mxSWeXJ/IpAEqz/va15VjyDwF3/xFxVS9V//9V/hh0PF2HDDDXuk9+3p5i9/+cvqH//xH6vHH3+8+t73vlcxoSFPf/3Xfx0bgmSNx7/7u7+r/vIv/zLIk1QYliiCH2KlSIXx3//935W1IZ3PLCubPrL2k5/8pPrOd75TyTn1r//6r1EHx/Lllluues973hOvr3/969tzgW2o9brrrqueeOKJSAWywgorNNXCc889F9GLm2yySbXBBhuM+1w+hBY2Z95efvnlx31eHpgIDAoCSbAG5U7ndXYtAkiChxv15corrwySsO6663Ztf1vdMaQHkXrggQeqhx56KNQpZOqd73xntdJKK1UzZ86MxbJFYSJRVCmqj60QKqTqj//4j1+mphSFhaKFbBXChczC2oZ8yZqOZP3oRz8KlUxEH4XsLW95Syx3tMYaa1TLLrtsRXHs1qJ/CCFlrtny4osvVkgW4tlM+dWvfhVENVcnaAa1PHaQEEiCNUh3O6+1axH4q7/6q2qzzTaLB75EpAiDvFn9Wpj1KEhf+9rXqkceeSRI03vf+94gU+94xzuCLCBUNiY+ZKpZ5+9iukK8RvNvQsSQLiqXDWGgoiEdTz75ZHXccceF2XGVVVaJ5J/ve9/7KspjM+Wmm26qfvrTn4ZCxOdqvEXfnnnmmcCKMoVIlWIfdQ+OzKWuE8FibkaWqHNPPfVUpb+77LJLtfTSS8exl1xySVzXu971rupjH/vYy7AR0cgMK8mpflKp9FvkqxQSlLLrr78+TIOlH15hdsUVV1TSj8AdKabMIqvURUtGceCvl2uuuSZIq31TaaKt9ynfJwKtRCAJVivRzLoSgQki4KHE9MXcQlnxEEQKLLPTT0WGcmTDgxcheP/731/Nmzcv/KAoeVQiQUK9XgAAJVFJREFUD2T7OlVgTxWzlQe9iD7mwhkzZoRZ8Yc//GEQwVNOOSUIhM833XTTChkcrfANo0p+85vfDNLB72s8BWF58MEHq6uvvrp6+OGHq3e/+90VQqTY961vfSv2ffvb345+Ii/MoUjgd7/73UrghP4hVd7rp+/TmWeeGaZSBIpaiIxZlLwU14lUrrrqqvHRD37wg8gq73/3bMGCBYv92O66664w2Trw4osvDuK14oorBo4WNzdJYIqVgsJ9pdIiXky79v3TP/1TdfnllwdZLfuQOPuyJAL9gEASrH64i3kNfYGABz0FwuLQSNaFF14YD8X6A7AXL5QqRKVCNJ5vOKojLpQTagxCg1ghN91UPOQ5xtvkpeIMv/LKK1fbbbdd+Ifde++91f777x+kx2eIBWJYLz/72c9igW9KmHtKkWTiHK1w4KciUYmYKal6n/zkJ6N+51kw3D4mTYrWpz71qdiHRCFWzKG+O4irlQIQRQoU8+edd94ZdW6//fahLukzAsVEWAqSRs0rgQL+V5//Eb03velNoYa5dz5HoKhn6laf+0qNdR0y08NGcl3kTFqSr3zlKxWTq2SqyBb1CpaUsssuuywmFPYNh2fpY74mAr2CQBKsXrlT2c+BQIByQ+XwkPnSl75UnXvuuUGyPNx7rVBv+FVRN0T7caDeYYcdqmnTpoW5qJeWgUGMbFTGJZZYIggMtYcydfTRRwcJY4ZDGJg1mfVOO+20UJvK50MJ2ND7iawcf/zx1X333RdqD/IEK4QFobJPe5Qp5uSyD45D62beoxQh7HyzECX9pSQhi+pE+BAxn49UECumSOcLPPDdpKSpF/mjpiGSSNb9999fWQaKUoZgUcn0a5lllonM9NRZTvEXXXRRtdtuu1UnnHBCpCqhstmHhNu36667VieffHLs69UIy5HwzM8HC4EkWIN1v/NqewABJMvDcfbs2WEqPOuss0It4UvTC8XDmOkKOeTLxPzD1OnBzndpNH+oXrg+hIaqhWwhD/yTEJ8TTzwxCAiS5X9kZu+99w6laSzlynU7Xn0IFhXLOYg21YjKZx8SM3Qf5XNoQUyKqa3sR6peeOGFUKgcz0eLgkWxqheEyqZwZKdAqgtxdGw5nh+dIAFt+c7uvPPOQf7go27tIWTO1QdRjldddVUQNVGHMHQuBU3EqH2CHURxCnIo/a/3Ld8nAr2EQBKsXrpb2deBQcDDhQrBzMMsRA05+OCDuz4c/vvf/34oVl7XXnvtakbDV8l1IFbj9atC0BAzJijpGDzYu7EgitQhZk4+Tkjk17/+9XD2RpaodUxd41VhkCgkRZoO/lFMasWUuuWWW4ZJ7UMf+lDsQ7KoQEx1llpChMYqTIp8t9Stv/z8EKTib+V8vlzUJ8TL9ZUABATJ+UyBjz32WJAuJkMRoEgUssQU6XznmRSo1z1HNjm/U8OYB+fOnRuKlj6fdNJJ4SOG0Nm31157xT4Ea7zfl7GuO/cnAlOFQBKsqUI+200ExkAAyZKqwEN3/vz58TD69Kc/HUrGGKd2fLeoNX5AHqRMaAcccEAoEYjVeJUISgZfHITSA94DWV1MbPx1RLcxIVE/5syZs/ga+XZRzIrvjvcICPMVgofo6QfSds8994TZEpmROZ8q6EHOT0rbiCH1EMnhKzYe3zDXh2QhINMaJj2O5vykmEbhImN/cZ5f3Olh3ugH1QdJofYxsVF0RFpydvc5f6ayj8mOo7nrd24xExbFqjThfxtTHHWNY7m+aUuAAcfycg5SJFLQ94xCR60qOa4odXypmC61h/i6Xn5q7pEAAKQSQUaqmbUFNDzf8LvjizV9+vRoCxZwPf/888M8Sam1z70u+0rf8zUR6GUEaMuNycP/ycG9fCHZ90SgXxEo/i/nnXdeZCw//PDDF0eUdcM1IwFnn312ODx/9KMfDULj4T1e5aZcAxKBSCIqCBWC5WEvDcHuu+8e18wMx2+ImlfKF77whSBO1A+KjP8pSPJYSWOgLuQLcVMfUoV8UchKvXx+KDMe9KLbqDD2aavZol7qDDLHj45axFSI4DRb1PWb3/wmIv+KWlbqKPuoSEgevOGu7aKueaUs2W+fY5kJmf3Uh1w5hkM9AoekUbD4gyFOiCmTHyXRcbARCYog8cNyPCKmOAdR1RbihajyzZJ/TFvqQ8xKQZg9e/Rr6L5yTL4mAr2KgElLKli9evey3wODgAebMH0PfCSLc/Chhx4aD7GpBAEBEgF26aWXhp8Q4kf1mYhJz8OZGsPUxCxGufPw9fCWSkApvj8jXTNyxUcJUdhvv/3CdPX5z38+fJooIxysqUJ77LFHKENSFjBzIbBIyVZbbRXmNmY+0W4c1SdCsAr54IyOaPAtYgqj8jCD1UnGSNdSPlcXHyw4FJVprH1FySrHIZqlIDrwga1+lDqpYqWIPCyq1tC+Oo5J0HmIVDnfuZzfnesz31mvVKn6MaUNr6WN+mf5PhHoJwSSYPXT3cxr6VsEqBOcf5Es6RuYY5hqPKSmojB9yW909913h5M3R3ZKhAfrRAqnaGqHyDSKj4e34qGNEPmf+W60giSpBwmAFXKCDFBd5HZSBxWJ8kL9oXKJgNPGUUcdFUSAesMMhqwhNpMpVBlmsmkNkiW6DjkWsScCcDwmw3rbI5EUx4y2r15HeT+UNJXP668F//pn3mtrJGXSPpjXy2h9G21fvY58nwj0KgIv6bW9egXZ70RgQBDwYGPeEsaOIJx++ulh/un05TM5MQnyc6L62JCRiZIr/ZfSgSkJKanX4z3ixmdqrAcygmW9QXWUBz21xnvEiVJln+JzdTKVaQNRdQzFSyZ9KhxH68kWdauHiVIqAr5ZiBYimCURSAT6G4EkWP19f/Pq+gwBJEtkGsd3/jTnnHNO5Ejq1GVKWHnqqadGEknKEmdwfjqTLepgtkI8kJ5SitmPqqS4fkSpXvzvc6SI2dI5yJrif3UjVEhpSarpc+1Rkkr/OXMfc8wx1VENNYuyJV3C0Lbq7TbzHpnbeOONQ40TVcc8ySyaJRFIBPoXgSRY/Xtv88r6FAGKjGivnXbaKciVfFPUm3YX5Aqh45ws+myttdaakL/VcP3kY8SRmgmNE3Yp/KD4Q8mTxNyHqHDIZqJUECnRgQiWyDVmP07hcjQhUHCRT8o+Plw+V3zuf+3y2+LkziGeeZLvVFG0KGutKgig5J4iLJk7KVlJslqFbtaTCHQfAkmwuu+eZI8SgTERQLI4YAuL52Mk5L2QhzFPnsABzIIlrH7fffeN9evGkzxzvE1xxJZHyrUgVMic8H5ReEgI3ylmSMfJ43THHXdEdnhpIahb/Kr4XXGOF9Uog7woPioUE+Oaa64Z5Mv6fpaUcZ5rQtqYDUUq8pNC7uxHrJAthK2VRUQeR3dO+NIsiGxMc2ErEc66EoHuQeCPGl1pTPQyTUP33JLsSSIwfgSYw5icrrjiiog0ZLabSBTfaC0ibgsai/wiNpJbUq6Kj9No5zW7j1lOfiYEi/lTQahEFVrLj3qFPJ1xxhlBsPhkUbCoQggL0+lTTz0VapRIQOMaMkMxsg+B4jsmx5b+S+IqtQP1iz8b3yvnMCfK+cTXTfRmOwpzJQKIYMltpS/FVNmO9rLORCAR6CwCxqckWJ3FPFtLBFqOAJIlXYJ0AIgEQtJKAoSY2CTmlEm8lcpVHQx+UYgVFYvDOeLDVEedojIZsPhEMe9RtaxvyIdKviXpBxxvv3X7kChlWiOCj/IFD7mv1E25Uh+FqkTzqZN5UvvMhsUcqc52FfeNknbzzTdHegg+WlkSgUSgPxBIgtUf9zGvIhEI522mMsk6ZeuWc2mkUPtm4LK0CnVM+oTtt99+cbbwZupo9lhEizJlgHINXoeWcoyUA8NdZ3FOH3o+haped71en6vXOeNJZVA/d6LvkT55xPh/MffKAp8lEUgEeh8B41b6YPX+fcwrSAQi2zZTmVQA/IyY2SZb+CNRWJjMpGIYmsBysvWPdD5yQzmS4mA4cuW8csxw5Mp+5w53vvp8Ptx5PtNup8iVfjLnWkaGbxasBRBkSQQSgf5AIAlWf9zHvIpEIB7S6667biSyZDK05txEC6WHozgHbElEiyltovXleSMjgMBKPsqpX2Z52GdJBBKB3kdgYmmXe/+68woSgb5EgBJiORjmLr491Jptttmm6WsVVWdjbpTcdCQlaTwVM7shDcOpRuM5v5ljtKV0UoUa2r9m+wBbGd9FhVqoeqmllgqT7NB68/9EIBHoLQSSYPXW/creJgJjIsCUt9FGGwXJWrhwYZAspsPxFok+ReFxIpdIdKjD/O233x5L9Vj0t14sUfOJT3wiIv7qn/PhkpIA8VOv9QZnzZoVa/1JoTCRRZDr9Zf38mOdddZZsf7dnnvuWT5+xaslefRdhnWO7q0sIiHl1BJsIDJwvAXGlMIjjzwyAhaQLGQ5SyKQCPQuAkmwevfeZc8TgRERQLI+/OEPh9M2JYt6xAw1nmLdPmRF+gDRdEOL5WgQgjlz5kTuqrJfm9MaUXtDizQPSI2cUkgEvyO+RqIe5a5qFcGi2mmnLIcztB/lf6Y4PmrybrWaYHGuh91EcpJZGHnGjBmRhFS6CSQtSyKQCPQuAkmwevfeZc8TgVERQHgQGsTDGnjMhUjXaIUp77HHHos1/TjNj2TWQ5aWW265au21115cHVMX05xM6jfccEP11a9+NXI7IWTUIq/Im/7IxI5gMYlJw2DB5SuvvDJyQyFIHL9lVJfxXJ4vvmDIi1QR+lWKvFjyVz366KORM0t6hiWXXDLaoJaJ0CuJSi0vhABec801sVA1VU0KByRS/q27GwtXU9Qcp22mPo7n+iWNg7ZFUiJC9SLLvISoTzzxRKSVoI5Nnz49zKKyxNsnI/0KK6wQubW8DldgLf+W64XTZE2zw7WRnyUCiUDnEEiC1Tmss6VEoOMIUIuQBYktpXBAspj9RirPPfdcqEvI03DqVTkPQZLCAVkqBfGwnp8s6xJoIjOSgyJRzF1MjwgTEkO5WmaZZSKRJ3OYhaMXLVpUbbnlltH+TTfdFEvnIFX6rT2+ZPU++Qx5QYxkahf1iJjI1cV/DPGSs+ujH/1oxayJ8M2dOzeIIULH70n/ZKh/5JFHqpkzZ8ayO8iWaEKEh4nVskTI45133hlkUH2lIF4XXnhhEDxJTV0fMqW4HolNnatugQeWNZIJf6QEpjCEvZxclDZL/GRJBBKB3kQgCVZv3rfsdSIwbgSoTZtvvnmQLJGFSJZow+EKcmCZmJVWWmlE9cp5knlKPkptKYWyJCKOeUvyz0MOOSRSOyBhjqcIIUzMi1QmPluITlnmBulCPJAtahAzon3F3Pnxj3/8ZUvXICESkiIvMtiLemSeUyQenT17dhAyEZCIlwSjTHeIn7aZJvULkdl2220jd5hjLPhMxbM2ov8RMW0wmarXdRQnevmrtElx43NFNSt9KItFywgPG9dy7bXXBgEbiWAhdXJhXXfddRWymwSrfLvyNRHoPQSSYPXePcseJwJNI0CpoQ7JHs5shmTVzXsqRIQQhhdffHHMKDYPfuZGalEpVCqmPOsIIjCUKeoNEjV00WREQh8oRc7TrwsuuCCIlUWYkaqijsnmvuyyywZ5K215ZQ5E2BAlqhhFDHlSnM90d8QRR4TJknpGiUKOtKt9bVsomspnDUNL1fgMsaKOyayuDUvzXHTRReEfZamgQq60g5CqyzUil9Qn/VWQM6oXM6FrlFQUuRzLF47v1SWXXBKO+Iiw+rMkAolA7yGQBKv37ln2OBFoGgFEBwlhZkNmEAYPbo7epSAEiBCyMJajOCJCzamb7NSDnBVzIKKkXcvP+HykQoliBkRw9EskHnNeKQiRbWjRR2QHeVK0Y1OYDW1IJfWJD1ox3cUBf/hTltgp/UOsECHO7xQn0YhMgtQxfaKu1fEp6weW8ylkhUzCCInl08V0ygeNf9pYTv0UR+RUXQjrUIzr/c/3iUAi0L0IZKLR7r032bNEoKUIIDucupnOqD3z58+PrO+lEcSGrxZ1yrGjFaSGae273/3u4o3DeVFz+CJZuof/lczylKN6Ub+2EBORf4iHPtk4pSNDJeHmSH1BVJA5CpG2tcNxXZFigv8Vc5tjOJ5Tq9RZ2kY0tafP6rBOId8tBGtaQwmjPvHPco40F0gXAqbfpTD1qY850DWrhwqowFEbzkGa4CF6caxs7eqjqOlHMTeW9vI1EUgEegeBV04Le6fv2dNEIBFoEgEPb8qMde+oRZyuKS38jPgjIQRDo+SGNqEOhIW/0ec+97nFu0UK7r///hFBd88994RPE9UMuaLkOE/xKhcWsyUHcf8zAXq/YMGCMC/qE4JTIu7KuYsba7xhhlxttdWq0047LXyb3vKWtywmUIjVXXfdVfHbYrpj9kO61FmW/eGArg+SqZ555pmLgwBEC/oMHurYaaedQkFj+uOrVc9qj0RJEApH5InaVIghEyp/tBNOOCH8uihue++9d6hZ9esY7r22HnrooSCFw+3PzxKBRKD7ETDiNcaDXJqh+29V9jARaB0CSI+oOyoWR/F58+aFCiSaTpQb8jJSoaxQnJgA64UShLBQjJi2KFHeU834RNkoX8x9yAZFST3MdD7ju8WnCvlSNx8sJjhmwHJ+vT3vmeNch3re+MY3hlKkbu1SxvTDewSLyU09iCCy5X99Q+b01bH679qRKO2rgx+WYzju66v66oXpj5rHPKlubaiHb5c27BNt6LrUoX/DEcZ6nc45/fTTwzmemTNLIpAI9BYCfuNJsHrrnmVvE4GWIYBkIQ/UF0SC2mRQOOqoo4IgTKYhk7ZiFkS8hiv1iZ12He8zx3u1xSDV2DdacZ4NEas7oDvf5+rweXnvf/tKKW2X/fX+Og7Rckz983JueXWuzTGOrRfnl331/tWPGfoeYTzssMNCDaSgZUkEEoHeQsA4kD5YvXXPsreJQMsQ8LBn4pLigOKyoGGeQwYoL5MthZCMRkocUzbt6U85Pganxv9exyrOo4ANJS/OVV/53Gupz2vZStvqKO2XNh0z3Odlf3ktfSj1l8+9qpMCVvpR3zfSe/fAvWCyzZIIJAK9iUD6YPXmfcteJwItQcDDX1ScaDnO2ApCkWVqEUDIigI3tT3J1hOBRGCiCKSCNVHk8rxEoE8QQLI4mUsuSoGhnAxiKYSmbj6cKhzKPRhOEZuqPmW7iUAi0BwCSbCawyuPTgT6EgEki/M1M1bJ6dSXFzrKRcmbdeSRR0b+rFEO68guwQDuicSkWRKBRKA3EUiC1Zv3LXudCLQcAQTLQ52D9SAWxJKZtBsIpn4wE7bCH24Q72VecyLQDQiks0U33IXsQyLQBQhwdEewRBS2Onu4RJwUIrmlLGEj8ebuu+8ey+3Isv7www9HAk9pEKQlsJC05WKkQJBPynp+koA6Vzb69773vZHg9IYbbqje9773hXnT4s4WiZZiYZdddolFrhEUKRgsCn3zzTfHPnVtsskmoQ7deuut1YKGc78UC64fqVGkVVCf3FYcza3lKCO7/VdddVWkdJDWQd/kxmp1gZO29ClLIpAI9CYCSbB6875lrxOBliMgjxSTlLxYJcFnqxqRJR4xkUDTwsiyrlt6xqLP8l9Jeior+ty5c6uvfe1r1RVXXBEJPGVPX7hwYaQ5kHVdpnYLMSNYixYtiuzpFomWz0viU8SJ+iNpqdQIm266aWRjl0Xde/mvrHlon75oV5FoVVJRhQ8WcnXZZZdVa665ZiWBKXLGfGrtRX1HGDfYYIOIwoyTWvxHVnn5tBDOLIlAItCbCCTB6s37lr1OBFqOgAzvCJbEna0uCI0km7Kob7/99rEe3zXXXBOZzu1Dkg444IDIcn7iiScGwTv44IMjeajkoxKgWs+PGVN2dAoPskXh4RD+5JNPBrnaZ599Yt9xxx0XCpfcXvYhV7KoW3rm2GOPDSUM6aOkyWpvTUYZ36lsFC9L/KyxxhqRgFUdlDTZ660RKAnq1ltvHf1ttdJXcJefDMGSCDVLIpAI9CYC6YPVm/cte50ItBwBio4s5db1q6+316qGkAVtIA6ymvN1stCzQsmiUHHulileNnVL9pRjpY6g5lC5ECCqlkzwyy23XJg11fOZz3wmUk5YPof6JIu6z2VFR7iko7AEzuWXXx4mQOsoIpTW/UO07EeY1Ksf06ZNi/+ZGalYClOiPjkWYSwmxdjZoj+wRwr1qbTboqqzmkQgEeggAqlgdRDsbCoR6GYECtn46U9/GiSLb1MrCyWqLK/DVFccuZnkECibpXEQC0vgOF6f+EMhfgiNYylY1113Xag7TIUIGWLEN4v5kSLmGihSlCBEbdasWbHfPiZQqpQ6qHXOVzj3I1BMpUhU6QMShXTpm6VwpE7gq9ZM4tBmcHziiSeifeZR158lEUgEehOBVLB6875lrxOBtiDABIZccChvdXnmmWfC1EeB4sTO7EYlqhdmSooS8983v/nN8M+i5iBECAdTItJx++23h3nQ/9QuKhMyhUBRrU499dTKgtPOQc7Kvueeey728aFickSq7r///lCM9InvE7LmvEcffTSc79WnP8jVaGs01q9jMu+ZQznq60OWRCAR6F0EkmD17r3LnicCLUdAwlFmKQ7kVJtWFsoPp/L3v//94Xg+Y8aMar311lu8fI22qEJrr712vPLV4gfF92n99dcPEkXFYkpEPpgLES//84li8uOULjqROVLdjqFsIUv2caJnntT29OnTw2TJJ0v9iBb1Sh/8T8FyrvNgsc4660QfXEe7EoCK4OT/5TqR3SyJQCLQuwhY6Kuhur+08GnvXkr2PBFIBFqBgIi7G2+8MQjFRz7ykVZUWV155ZWVlAjSGlCdXv3qVweRoy7xxWIOpEIxvXnPfPjjH/84TIJMfPyvir8T/yjnUNqcr/Bb4sBeou8oTUx66qvv0wbyYh+SREUTxWgMpJ6pz4ZkMWPqgzr0gcnR50yKzJnab3VhtqSuIYzIZZZEIBHoTQSML+mD1Zv3LnudCLQNgRVXXLFCsm655ZaIrmtVqgCkhEJEcaqrQEOJiuPe8IY3BKlCfJCaumLk+KHnMBsiQdQ3xzqnlNH2iULkKK/Uz/E/FUw/Sl9LH5CzdhQqGWJLRURCsyQCiUBvI/DSKNTb15G9TwQSgRYhgEB88IMfDF8nuaVaUZCGjTfeOKIFhxKm4eovJIl6VIjNcMfVP3Oc44cSJceMts/xY50z3j7U+9Ps++JXttZaa4Wjf7Pn5/GJQCLQXQikgtVd9yN7kwhMOQLIBPPU008/HUk/qSlUp8kUDuVIFnUqyysRkBpDglXEdtVVVx03qXxlTflJIpAIdAsCqWB1y53IfiQCXYQAfydKCn8ky9Hwi5pMoSwx1Q2nFE2m3n44F7aSrjLFcrwvvmb9cG15DYnAICOQBGuQ735eeyIwCgKi2CwNI00B36CpLNIuyPTO6Xy4gqRYwuahhx5anGtruONG+0wdDzzwQETxlXxdox3fqn3IFed8AQASmGZJBBKB/kAg9fr+uI95FYlAyxGgOklXYFkaDu+i7CwpMxXFGoOi9zidD1dECorAY95kipyICmRRZ+sj8kFjEp1IHcP1bbTP7r333oiu5J9W0lOMdnzuSwQSgd5BIAlW79yr7Gki0HEE+ExRsSToPP/88xcn95xsRx5++OGoT0JTuar22GOPiABcsGBBJNncbbfdQjmzrI2oRglE5YiSBFSOLn2R98q5H//4xyORqFQQSJJIQjm0OI3LuyUVw2abbVbttNNOkSj0i1/8YiQWledKP/iYfeITn4j6qEnWNpQrSw4sxPLiiy+OpXNmzpwZ6xZK89CKYtHqc889N9qXsyv901qBataRCHQPAq9qdOWoRumeHmVPEoFEoKsQKLmjJMDkiL3CCiuEv9BEO4kYnX766ZFnytI2lrWR5NOyN3JcITkIFZOfDOyIDTLivbUMr7766ogWtEizZWVkhl955ZVjCRypGnyuPuRKXyUKve2224KgOc77Cy+8MFQqaxNSkShf/J8QyWmN7PKzZ8+u7rrrrurSSy+tVlllldh38803x/qGCJ88XpMpAgiOPvroUAULuexEpOJk+pznJgKJwPgR8PtOBWv8eOWRicBAIuDB//a3v73aZ599qlNOOSUWTj788MMn7C9EgbIQ85w5cyqmP35HVCKRdBKbImAWZ0amqFNI0R133BGky7qE1hJ8zWteE8qWiDukjOlQclF9ld3dcjOW3Nl3330jPxafKvXLCo+8zZgxo9pzzz1juRzrDzKDWp4GQZMby3uEkkJG3aKKaYc/GqKHZE20IFcmtfrs+kq/J1pfnpcIJALdiUA6uXfnfcleJQJdhYDoP75NHM2RmEMPPTTMbBPppAzpCBOTHb+uLbfcMlQlpAvBkaoASZLagemML1gpCA9zn6VvkCTkB+mhsumXfiJhknZecskl1UorrRTmvn/4h3+onn/++TAXqksSUZsoSYtLOxfxcr5NH22ULoteMxkiffU6Sp+aeUUeDznkkGhz//33r5ZeeumMrGwGwDw2EeghBFLB6qGblV1NBKYSAcQDwUGuzjrrrFBhDjrooDCfNdMv6RqQKKYxZjm+UMiMxZS9Uo6oVBZ59p56Vgp/Ko72zH6UJP5UfK8QslKY77TBj2vevHmhSFGo+FZNa5j/mDkLkSrnDH0tdey1115B4ji+W4pHZnl1TKRYAuekk04KxY5y5br0I0sikAj0JwL56+7P+5pXlQi0BQGEgOmNCsM3CWHgm9RM4SSOqDCVMd3xiTr55JOrxx9/POqiTh144IFhhrv22mvDtFfqZ+ZzLJK02mqrBdFCptSjb8x4THzMbggYxYkJ8Mwzzwwy9pvf/KZU9YpXKpZNHdYd1E99lBrCeaeddlqoYpS2ZosIR+ZVxPLggw9OctUsgHl8ItCDCKSC1YM3LbucCEwlAogMnyTq0MKFC8OZnOlr1113DVPaWH1bZ511gricffbZ1fHHHx9khlLEVMcXi2nQ/3JaITXIiehAxbqBTz31VHXEEUfEJjknJQzZQoY+97nPhf8U3y7+VjvuuGMkSVUn5a34OyFSpRRixczIHwxpRNI23XTTMD/OmjUr6uAwf9hhh4VvWDl3rFdK3Pz584M8UtQ22GCDcJCvtz9WHbk/EUgEehMBo0xjMvn73ux99joRSASmFAHJOTmUn3jiiaH8IDHMd6MV4w3F6Wc/+1n4SiFJCBtfK58jH1QpPlHyWxUfLOfJTfXiiy9GYk5KEx8u50txoC+UJscga/JmSeCpDukdmBHV5X91aUNb5X/nMSP++te/jn2lDgqWz9VB2Sr9Ge0a7bvnnnuqz3zmM+HMTrXiGD/ec8eqO/cnAolAdyMQE7dGFxtjTRKs7r5V2btEoHsRQISkWpCkU+4pflU777xzLOw8Wq+NO7YYiGqK0mjnlH3jPXe8x5V6vZY+lc9cnzLefjJLLmjk85Jji5K21VZbBRFMf6uCaL4mAv2PQBKs/r/HeYWJQEcQQEooSBKHMv3JTcVkKO2ClAeDUChf119/fZArfmoiHOX2oloZbLMkAonA4CCQBGtw7nVeaSLQEQSoPUx3zGPWD2Ty22+//aoNN9wwlqDpSCc63Aind476kqeKNuSgL9Lxz/7szzJKsMP3IptLBLoFgSRY3XInsh+JQJ8hwGdJPirRfpaD4ec0d+7cWNBYOoZ+KHzIRFBatgexknphRiM3VzN+Wv2AQ15DIpAIvBKBJFivxCQ/SQQSgRYhwGxI0eJ4LgeUpWtE1VnbUGSeyL5eLCImrZEoWeqSSy4ZplCKlcjDdGLvxTuafU4EWo9AEqzWY5o1JgKJwDAIULRs1g684oorQtkS1bfFFluEqvWOd7xjmLO65yMpH6SkkJdLslPpFpBEiVdFMKYDe/fcq+xJItANCCTB6oa7kH1IBAYIAaoWomUpmwceeKC66aabYlFnqRb4aVkah2M4k9tUFn5VlCoLPlOqqHCiIy3TY4Fo/U3n9am8Q9l2ItDdCCTB6u77k71LBPoWAUSrkC2+WrK3f/3rXw/n+F/84hfVMsssE8lDLfQswaccVJSidhTRj6IeESr9ePDBB6tnnnkmlu6RFBXpsx5h8a2KgTOjAttxK7LORKBvEEiC1Te3Mi8kEehtBPhqle1f/uVfqkWLFkUCU2kfmBU5yUt9YOP39Na3vjWSk1qwmZrE/0nUnjUECxFDnGSAl3CUImWdQ2sSck5HqOSreu6552Kz6DPlTDJQSwBZJJozPtNf2Xob4ex9IpAIdBKBJFidRDvbSgQSgXEhUNSt+itVi6pkfcEXXnghMrQjYggTBcx6g4gUIoZYKUx4CJclcBAwPl8ImezvSyyxRCybg7AttdRSkW29KFP113F1OA9KBBKBRGAIAkmwhgCS/yYCiUD3IlAnXN4r5XXo+9j5hz8GulLK+zqJKp+VY/I1EUgEEoHJImBcaY9Tw2R7lucnAolAIjAEgUKKhnyc/yYCiUAi0JUI/HFX9io7lQgkAolAIpAIJAKJQA8jkASrh29edj0RSAQSgUQgEUgEuhOBJFjdeV+yV4lAIpAIJAKJQCLQwwgkwerhm5ddTwQSgUQgEUgEEoHuRCAJVnfel+xVIpAIJAKJQCKQCPQwAkmwevjmZdcTgUQgEUgEEoFEoDsRSILVnfcle5UIJAKJQCKQCCQCPYjA3XffHb2Wge//Mvb14EVklxOBRCARSAQSgUQgEehGBP4/lFD+OaBE6PgAAAAASUVORK5CYII=;" vertex="1" parent="1">
          <mxGeometry x="110" y="470" width="600" height="420" as="geometry" />
        </mxCell>
      </root>
    </mxGraphModel>
  </diagram>
</mxfile>
